<svg width="135" height="240" viewBox="0 0 135 240" fill="none" xmlns="http://www.w3.org/2000/svg">
<g clip-path="url(#clip0_105_118)">
<path d="M71.0011 102.346L69.1707 117.272C69.0612 118.164 68.625 118.986 67.9442 119.582C67.2635 120.178 66.3855 120.507 65.476 120.507H15.9455C15.1591 120.507 14.3929 120.261 13.7569 119.804C13.1209 119.347 12.6478 118.702 12.4055 117.963L11.1914 114.259H51.6778C52.5323 114.259 53.3608 113.968 54.024 113.436C54.6873 112.903 55.1449 112.161 55.3201 111.335L57.5378 100.868L58.0972 98.2246H67.3076C67.8341 98.2247 68.3545 98.3352 68.8345 98.5488C69.3145 98.7624 69.7432 99.0742 70.0923 99.4636C70.4413 99.853 70.7029 100.311 70.8595 100.808C71.0162 101.305 71.0645 101.828 71.0011 102.345V102.346Z" fill="#660066"/>
<path d="M57.5435 100.868L55.3246 111.335C55.1494 112.161 54.6917 112.903 54.0285 113.435C53.3652 113.968 52.5368 114.259 51.6823 114.259H11.197L0.180557 80.647C-0.0606291 79.9099 -0.0601739 79.1164 0.181857 78.3796C0.423888 77.6429 0.895136 77.0004 1.5284 76.5439L6.5953 72.8926L15.0556 98.3406C15.3005 99.0762 15.7741 99.7167 16.4089 100.171C17.0437 100.625 17.8074 100.869 18.591 100.869L57.5435 100.868Z" fill="#700070"/>
<path d="M70.8831 100.868H18.5894C17.8058 100.868 17.0422 100.624 16.4074 100.17C15.7726 99.7155 15.299 99.0751 15.0541 98.3394L6.59375 72.8914L10.4489 70.1135L18.9534 95.6949C19.1984 96.4307 19.6721 97.0713 20.3072 97.5253C20.9422 97.9794 21.7061 98.2237 22.4899 98.2233H67.3117C68.1163 98.2234 68.8991 98.4811 69.543 98.9579C70.1869 99.4346 70.657 100.105 70.8831 100.868Z" fill="#FFCC00"/>
<path d="M30.0729 98.2256H22.4848C21.7012 98.2257 20.9376 97.9813 20.3028 97.5273C19.6679 97.0733 19.1944 96.4328 18.9495 95.6972L10.4473 70.1135L14.6106 67.1138C15.0842 66.7708 15.6334 66.5436 16.2131 66.4509C16.7929 66.3582 17.3865 66.4027 17.9455 66.5807C18.5044 66.7587 19.0127 67.0652 19.4286 67.4749C19.8445 67.8846 20.1561 68.386 20.338 68.9378L30.0729 98.2256Z" fill="#FFAC00"/>
<path d="M30.0771 98.2257H29.0991C28.3155 98.2258 27.5518 97.9814 26.917 97.5274C26.2822 97.0734 25.8086 96.4329 25.5637 95.6972L15.8672 66.5243C16.7838 66.2882 17.757 66.4064 18.5885 66.8549C19.42 67.3033 20.0472 68.0483 20.3422 68.9379L30.0771 98.2257Z" fill="#FF7900"/>
<path d="M6.60097 72.9038L6.59375 72.8857" stroke="black" stroke-miterlimit="10"/>
<path d="M57.5435 100.868L55.3246 111.335C55.1494 112.161 54.6917 112.903 54.0285 113.435C53.3652 113.968 52.5368 114.259 51.6823 114.259H11.197L0.180557 80.647C-0.0606291 79.9099 -0.0601739 79.1164 0.181857 78.3796C0.423888 77.6429 0.895136 77.0004 1.5284 76.5439L6.5953 72.8926L15.0556 98.3406C15.3005 99.0762 15.7741 99.7167 16.4089 100.171C17.0437 100.625 17.8074 100.869 18.591 100.869L57.5435 100.868Z" fill="#700070"/>
<path d="M70.8831 100.868H18.5894C17.8058 100.868 17.0422 100.624 16.4074 100.17C15.7726 99.7155 15.299 99.0751 15.0541 98.3394L6.59375 72.8914L10.4489 70.1135L18.9534 95.6949C19.1984 96.4307 19.6721 97.0713 20.3072 97.5253C20.9422 97.9794 21.7061 98.2237 22.4899 98.2233H67.3117C68.1163 98.2234 68.8991 98.4811 69.543 98.9579C70.1869 99.4346 70.657 100.105 70.8831 100.868Z" fill="#FFCC00"/>
<path d="M30.0729 98.2256H22.4848C21.7012 98.2257 20.9376 97.9813 20.3028 97.5273C19.6679 97.0733 19.1944 96.4328 18.9495 95.6972L10.4473 70.1135L14.6106 67.1138C15.0842 66.7708 15.6334 66.5436 16.2131 66.4509C16.7929 66.3582 17.3865 66.4027 17.9455 66.5807C18.5044 66.7587 19.0127 67.0652 19.4286 67.4749C19.8445 67.8846 20.1561 68.386 20.338 68.9378L30.0729 98.2256Z" fill="#FFAC00"/>
<path d="M30.0771 98.2257H29.0991C28.3155 98.2258 27.5518 97.9814 26.917 97.5274C26.2822 97.0734 25.8086 96.4329 25.5637 95.6972L15.8672 66.5243C16.7838 66.2882 17.757 66.4064 18.5885 66.8549C19.42 67.3033 20.0472 68.0483 20.3422 68.9379L30.0771 98.2257Z" fill="#FF7900"/>
<path d="M6.60097 72.9038L6.59375 72.8857" stroke="black" stroke-miterlimit="10"/>
<path d="M36.5015 85.7074C36.0805 85.9887 35.6055 86.1816 35.106 86.274L20.1611 89.0795C19.273 89.2466 18.3536 89.0884 17.5748 88.6345C16.796 88.1806 16.2111 87.4621 15.9292 86.6131L0.449409 40.0281C0.203949 39.2893 0.201725 38.4927 0.443057 37.7526C0.684389 37.0125 1.15686 36.3671 1.7926 35.909L4.93252 33.6437L17.6806 71.9892C17.9602 72.8305 18.5376 73.5439 19.3067 73.9982C20.0758 74.4526 20.985 74.6175 21.8672 74.4626L32.1615 72.6524L34.8362 72.1823L37.9436 81.5101C38.1978 82.2695 38.1945 83.0902 37.9343 83.8476C37.674 84.605 37.171 85.2579 36.5015 85.7074Z" fill="#660066"/>
<path d="M20.1553 36.5031L32.1719 72.6523L21.8776 74.4613C20.9954 74.6163 20.0863 74.4514 19.3172 73.997C18.5481 73.5427 17.9707 72.8293 17.6911 71.988L4.94531 33.6436L33.7954 12.8583C34.4314 12.4012 35.1976 12.155 35.984 12.155C36.7704 12.155 37.5366 12.4012 38.1727 12.8583L43.4059 16.6097L21.4997 32.384C20.8637 32.8419 20.391 33.4873 20.1495 34.2274C19.9079 34.9675 19.91 35.7642 20.1553 36.5031Z" fill="#700070"/>
<path d="M37.9584 81.5101C38.2121 82.27 38.2082 83.091 37.9471 83.8485C37.686 84.6059 37.1821 85.2586 36.5117 85.7074L32.1728 72.6524L20.1562 36.5032C19.9109 35.7643 19.9088 34.9676 20.1504 34.2275C20.3919 33.4874 20.8646 32.842 21.5006 32.384L43.4044 16.604L47.263 19.3704L25.2592 35.2228C24.6234 35.6809 24.151 36.3264 23.9096 37.0665C23.6683 37.8066 23.6705 38.6032 23.916 39.3419L25.1266 42.9968L26.2698 46.4389L34.8464 72.1835L37.9584 81.5101Z" fill="#FFCC00"/>
<path d="M51.4494 28.2972L26.2696 46.439L25.9707 45.5391L23.9123 39.342C23.6668 38.6033 23.6646 37.8066 23.9059 37.0666C24.1473 36.3265 24.6197 35.681 25.2555 35.2229L47.2582 19.3705L51.4273 22.3587C51.9011 22.6984 52.287 23.1438 52.5539 23.6587C52.8207 24.1735 52.9609 24.7433 52.9631 25.3218C52.9652 25.9003 52.8293 26.4711 52.5663 26.9879C52.3033 27.5047 51.9206 27.9528 51.4494 28.296V28.2972Z" fill="#FFAC00"/>
<path d="M51.4457 28.2971L26.2659 46.4389L25.967 45.539C25.7215 44.8002 25.7193 44.0036 25.9606 43.2635C26.202 42.5234 26.6744 41.878 27.3102 41.4199L52.3784 23.3596C52.8852 24.1461 53.0709 25.0935 52.8977 26.0102C52.7245 26.9268 52.2055 27.7442 51.4457 28.2971Z" fill="#FF7900"/>
<path d="M110.709 27.7546L108.732 33.8701L86.9847 18.1843C86.348 17.7256 85.5805 17.4785 84.7926 17.4785C84.0047 17.4785 83.2371 17.7256 82.6005 18.1843L80.9456 19.3762L75.6089 23.216L51.7211 40.4131L46.8774 31.1934C46.4675 30.4128 46.3541 29.5129 46.5579 28.6569C46.7616 27.8008 47.269 27.0452 47.988 26.5272L80.6874 2.96631L109.358 23.6654C109.989 24.1207 110.459 24.7607 110.701 25.4946C110.944 26.2285 110.946 27.0192 110.709 27.7546Z" fill="#700070"/>
<path d="M51.7188 40.4131L52.9632 42.7818L43.4969 49.6007C43.2244 49.796 42.913 49.9317 42.5833 49.9989C42.2536 50.0661 41.9132 50.0632 41.5848 49.9903C41.2563 49.9175 40.9473 49.7764 40.6783 49.5765C40.4092 49.3765 40.1863 49.1223 40.0244 48.8306L32.0001 34.3735C31.5651 33.5901 31.4335 32.677 31.6299 31.8047C31.8264 30.9325 32.3375 30.1607 33.0677 29.6337L73.1645 0.706759C73.8016 0.24702 74.5701 -0.000732422 75.359 -0.000732422C76.1478 -0.000732422 76.9163 0.24702 77.5534 0.706759L80.6852 2.96745L47.9858 26.5283C47.2668 27.0464 46.7594 27.8019 46.5556 28.658C46.3519 29.5141 46.4653 30.414 46.8752 31.1945L51.7188 40.4131Z" fill="#660066"/>
<path d="M108.723 33.87L107.305 38.4144L85.3778 22.5861C84.7409 22.1269 83.9729 21.8795 83.1845 21.8795C82.3962 21.8795 81.6281 22.1269 80.9912 22.5861L77.8513 24.8445L74.8905 26.9776L52.9564 42.7818L43.4901 49.6006C43.2176 49.7959 42.9062 49.9317 42.5765 49.9989C42.2468 50.0661 41.9064 50.0631 41.578 49.9903C41.2495 49.9175 40.9405 49.7764 40.6715 49.5764C40.4024 49.3765 40.1795 49.1222 40.0176 48.8306L51.712 40.4131L82.5868 18.1831C83.2235 17.7244 83.991 17.4773 84.7789 17.4773C85.5668 17.4773 86.3344 17.7244 86.9711 18.1831L108.723 33.87Z" fill="#FFCC00"/>
<path d="M107.313 38.4145L105.756 43.2473C105.577 43.8026 105.267 44.3078 104.851 44.7213C104.436 45.1349 103.927 45.445 103.366 45.626C102.806 45.807 102.21 45.8539 101.628 45.7626C101.045 45.6714 100.493 45.4447 100.017 45.1012L74.9043 26.9754L75.6707 26.4237L80.9992 22.5839C81.6362 22.1244 82.4045 21.8768 83.1931 21.8768C83.9817 21.8768 84.75 22.1244 85.387 22.5839L107.313 38.4145Z" fill="#FFAC00"/>
<path d="M105.073 44.4781C104.468 45.198 103.608 45.6628 102.668 45.7777C101.728 45.8925 100.779 45.6489 100.014 45.0965L74.9043 26.9753L75.6707 26.4236C76.3077 25.9642 77.0759 25.7166 77.8645 25.7166C78.6532 25.7166 79.4214 25.9642 80.0584 26.4236L105.073 44.4781Z" fill="#FF7900"/>
<path d="M93.1413 28.1867C92.4071 27.6576 91.5023 27.4122 90.5977 27.4969C89.693 27.5816 88.8509 27.9905 88.2303 28.6465L76.8335 40.6774C76.6021 40.9216 76.4257 41.2116 76.3162 41.5282C76.2066 41.8448 76.1663 42.1808 76.198 42.5139C76.2296 42.847 76.3325 43.1697 76.4998 43.4606C76.6671 43.7515 76.895 44.0039 77.1684 44.2012L86.3952 50.8672C86.3979 50.8696 86.4014 50.8709 86.405 50.8709C86.4087 50.8709 86.4122 50.8696 86.4149 50.8672L88.2942 48.9582L95.5742 41.5567C96.1988 40.9195 97.0354 40.527 97.9298 40.4513C98.8242 40.3757 99.7161 40.6222 100.441 41.1452L133.413 64.9474C133.415 64.9488 133.417 64.9497 133.419 64.95C133.422 64.9503 133.424 64.9501 133.426 64.9493C133.429 64.9485 133.431 64.9472 133.432 64.9455C133.434 64.9438 133.435 64.9417 133.436 64.9394L134.622 61.2386C134.857 60.5042 134.853 59.7153 134.611 58.9833C134.368 58.2512 133.899 57.613 133.27 57.1585L93.1413 28.1867Z" fill="#660066"/>
<path d="M133.425 64.9555L122.744 98.297C122.505 99.0416 122.033 99.6918 121.395 100.153C120.758 100.615 119.988 100.864 119.198 100.865H112.645L120.826 75.5545C121.064 74.819 121.061 74.0283 120.819 73.2944C120.577 72.5605 120.107 71.9205 119.476 71.4652L88.293 48.9491L95.5729 41.5475C96.1985 40.9127 97.035 40.5224 97.9286 40.4485C98.8221 40.3746 99.7127 40.622 100.436 41.1453L133.425 64.9555Z" fill="#700070"/>
<path d="M120.827 75.5545L112.646 100.865H107.885L116.108 75.4223C116.346 74.6869 116.343 73.8962 116.101 73.1623C115.859 72.4283 115.389 71.7884 114.758 71.3331L111.58 69.0344L108.61 66.891L77.1684 44.1979C76.895 44.0005 76.6671 43.7481 76.4998 43.4572C76.3325 43.1663 76.2296 42.8436 76.198 42.5105C76.1663 42.1774 76.2066 41.8414 76.3162 41.5248C76.4257 41.2082 76.6021 40.9183 76.8335 40.6741L119.476 71.4652C120.107 71.9204 120.577 72.5603 120.82 73.2942C121.062 74.0282 121.065 74.8189 120.827 75.5545Z" fill="#FFCC00"/>
<path d="M116.11 75.4222L107.887 100.865H102.727C102.142 100.866 101.565 100.731 101.042 100.471C100.52 100.21 100.068 99.8313 99.7216 99.3652C99.3755 98.8991 99.1458 98.3588 99.051 97.7883C98.9562 97.2178 98.9992 96.6332 99.1763 96.0822L108.611 66.8898L109.415 67.4644L109.443 67.4851L114.76 71.3227C115.393 71.7786 115.864 72.4203 116.106 73.1564C116.349 73.8925 116.35 74.6854 116.11 75.4222Z" fill="#FFAC00"/>
<path d="M110.763 71.5652L101.373 100.616C100.492 100.277 99.7754 99.6203 99.3672 98.7784C98.9591 97.9364 98.8902 96.9725 99.1746 96.0822L108.609 66.8898L109.413 67.4644L109.441 67.4851C110.065 67.9434 110.528 68.5834 110.765 69.3152C111.002 70.047 111.002 70.8338 110.763 71.5652Z" fill="#FF7900"/>
<path d="M103.212 94.9409L90.7271 133.567H55.0901C54.3105 133.567 53.5506 133.325 52.9175 132.876C52.2845 132.426 51.8102 131.792 51.5617 131.061L49.4824 124.947L76.5183 125.062C77.31 125.065 78.0822 124.819 78.7226 124.359C79.363 123.899 79.8382 123.249 80.0792 122.504L91.8063 86.2257L101.214 90.4782C102.042 90.852 102.702 91.5126 103.07 92.3349C103.438 93.1572 103.489 94.0843 103.212 94.9409Z" fill="#700070"/>
<path d="M96.1024 72.9225C95.7988 72.7802 95.4678 72.7038 95.1318 72.6982C94.7958 72.6926 94.4624 72.7581 94.1541 72.8902C93.8458 73.0223 93.5696 73.2181 93.344 73.4643C93.1184 73.7105 92.9487 74.0015 92.8462 74.3178L89.3574 85.1213L91.8066 86.2281L101.215 90.4805C102.042 90.8544 102.703 91.5151 103.071 92.3377C103.439 93.1603 103.49 94.0876 103.213 94.9444L90.7227 133.567H94.5964C95.3857 133.567 96.1546 133.319 96.792 132.859C97.4294 132.399 97.9022 131.751 98.1422 131.007L113.186 84.4604C113.46 83.6126 113.414 82.6953 113.055 81.8786C112.697 81.062 112.051 80.4015 111.238 80.0195L96.1024 72.9225Z" fill="#660066"/>
<path d="M96.0985 72.9225L80.071 122.506C79.83 123.251 79.3548 123.901 78.7144 124.361C78.074 124.821 77.3018 125.068 76.5101 125.064L49.4742 124.949L47.9414 120.443L68.7812 120.467H75.2052C75.9945 120.467 76.7634 120.219 77.4008 119.759C78.0382 119.299 78.511 118.651 78.751 117.908L81.042 110.821L92.8388 74.3178C92.9413 74.0015 93.111 73.7105 93.3366 73.4643C93.5622 73.2181 93.8384 73.0223 94.1467 72.8902C94.455 72.7581 94.7884 72.6926 95.1244 72.6982C95.4604 72.7038 95.7913 72.7802 96.095 72.9225H96.0985Z" fill="#FFCC00"/>
<path d="M69.9737 110.816L69.1818 117.272C69.0839 118.069 68.7247 118.813 68.159 119.39C67.5933 119.966 66.8521 120.344 66.0488 120.465H75.2151C76.004 120.465 76.7725 120.217 77.4097 119.757C78.0468 119.297 78.5196 118.649 78.7597 117.906L81.0507 110.819L69.9737 110.816Z" fill="#FFAC00"/>
<path d="M81.0444 110.819L80.7688 111.668C80.5289 112.411 80.0562 113.059 79.4191 113.519C78.7819 113.979 78.0133 114.227 77.2242 114.228H69.5488L69.9675 110.816L81.0444 110.819Z" fill="#FF7900"/>
<path d="M64.1236 92.6941C76.7422 92.6941 86.9717 82.5844 86.9717 70.1136C86.9717 57.6427 76.7422 47.5331 64.1236 47.5331C51.5049 47.5331 41.2754 57.6427 41.2754 70.1136C41.2754 82.5844 51.5049 92.6941 64.1236 92.6941Z" fill="#FFCC00"/>
<path d="M64.1202 87.5003C73.8365 87.5003 81.7131 79.716 81.7131 70.1136C81.7131 60.5111 73.8365 52.7268 64.1202 52.7268C54.4039 52.7268 46.5273 60.5111 46.5273 70.1136C46.5273 79.716 54.4039 87.5003 64.1202 87.5003Z" fill="#FF9919"/>
<path d="M64.1214 76.0532C67.4406 76.0532 70.1314 73.394 70.1314 70.1136C70.1314 66.8332 67.4406 64.174 64.1214 64.174C60.8021 64.174 58.1113 66.8332 58.1113 70.1136C58.1113 73.394 60.8021 76.0532 64.1214 76.0532Z" fill="#FF7900"/>
<path d="M18.4749 156.161V156.881C17.843 156.918 17.4216 157.086 17.2108 157.388C16.9999 157.689 16.8937 158.378 16.8921 159.456V168.896C16.8921 170.329 16.9902 171.436 17.1863 172.217C17.5422 173.669 18.2237 174.395 19.2308 174.394C20.4821 174.394 21.3275 173.589 21.7671 171.98C22.0113 171.099 22.1335 169.865 22.1335 168.277V159.657C22.1335 158.648 22.0261 157.954 21.8113 157.574C21.5966 157.194 21.1764 156.964 20.5507 156.884V156.169H24.1302V156.881C23.61 157.055 23.2665 157.269 23.0999 157.521C22.9332 157.773 22.8494 158.353 22.8487 159.261V168.27C22.8487 170.663 22.5149 172.511 21.8474 173.813C21.1799 175.116 20.1301 175.767 18.6982 175.767C16.8258 175.767 15.5466 174.799 14.8605 172.863C14.4914 171.832 14.3069 170.503 14.3069 168.878V159.448C14.3069 158.391 14.2263 157.725 14.065 157.452C13.9034 157.177 13.5382 156.992 12.9707 156.877V156.162L18.4749 156.161Z" fill="black"/>
<path d="M24.7344 174.483C25.3391 174.455 25.7291 174.256 25.9043 173.885C26.0787 173.513 26.1659 172.965 26.1659 172.24V158.899C25.6682 157.936 25.3608 157.37 25.2437 157.2C25.1339 157.035 24.9627 156.918 24.7669 156.876V156.161H28.2185L33.8169 167.93H33.8971V159.655C33.8971 158.701 33.7967 158.021 33.5959 157.613C33.3951 157.205 32.9943 156.961 32.3935 156.881V156.166H35.8927V156.881C35.3841 157.026 35.0438 157.223 34.8717 157.469C34.6996 157.716 34.6131 158.267 34.6123 159.123V175.725H34.16L26.994 160.669H26.8777V171.707C26.8777 172.572 26.9463 173.186 27.0847 173.546C27.3025 174.127 27.7479 174.44 28.4209 174.486V175.201H24.7344V174.483Z" fill="black"/>
<path d="M36.498 174.483C36.9632 174.464 37.2947 174.368 37.4924 174.194C37.8219 173.901 37.9862 173.337 37.9854 172.502V158.858C37.9854 158.029 37.8304 157.473 37.5203 157.191C37.3284 157.018 36.99 156.913 36.5015 156.876V156.161H42.1999V156.881C41.6905 156.918 41.3417 157.018 41.1533 157.182C40.8354 157.465 40.6765 158.025 40.6765 158.862V172.507C40.6765 173.295 40.8036 173.822 41.0579 174.088C41.3122 174.354 41.694 174.487 42.2034 174.487V175.202H36.505L36.498 174.483Z" fill="black"/>
<path d="M48.2924 156.161V156.851C47.7101 156.906 47.3326 156.991 47.1597 157.106C46.9876 157.221 46.9003 157.507 46.9003 157.967C46.8998 158.103 46.9068 158.239 46.9213 158.374C46.9367 158.511 46.9619 158.647 46.9969 158.781L49.5786 169.201H49.5542L51.6893 159.662C51.7374 159.451 51.7796 159.236 51.8161 159.015C51.8723 158.729 51.9042 158.438 51.9114 158.146C51.9114 157.61 51.8199 157.277 51.637 157.146C51.454 157.016 51.0815 156.918 50.5194 156.851V156.161H53.9873V156.851C53.8028 156.879 53.6268 156.947 53.4722 157.05C53.3175 157.154 53.188 157.29 53.093 157.449C52.8945 157.773 52.7007 158.344 52.5115 159.161L48.7971 175.721H48.3738L44.1814 158.845C44.0128 158.166 43.8383 157.678 43.6616 157.38C43.5748 157.233 43.4542 157.109 43.3098 157.017C43.1653 156.925 43.001 156.868 42.8301 156.851V156.161H48.2924Z" fill="black"/>
<path d="M54.5918 175.197V174.483C55.057 174.455 55.3884 174.345 55.5861 174.153C55.8885 173.859 56.0397 173.309 56.0397 172.502V158.858C56.0397 158.038 55.8846 157.487 55.5745 157.205C55.3938 157.031 55.0678 156.921 54.5964 156.876V156.161H63.9813V161.842H63.5836C63.3766 160.027 63.0254 158.784 62.53 158.115C62.0346 157.446 61.1302 157.111 59.8169 157.111C59.3184 157.111 59.0016 157.2 58.8667 157.378C58.7318 157.557 58.664 157.913 58.6632 158.445V164.964C59.5936 164.984 60.2219 164.693 60.5483 164.092C60.8747 163.49 61.1267 162.392 61.3043 160.797H61.7183V170.315H61.3043C61.188 168.711 60.9507 167.581 60.5925 166.925C60.2344 166.269 59.5913 165.941 58.6632 165.941V172.763C58.6632 173.36 58.752 173.766 58.9295 173.98C59.1071 174.195 59.4719 174.303 60.0239 174.304C61.0627 174.304 61.9109 173.956 62.5684 173.259C63.2258 172.561 63.8092 171.254 64.3186 169.338H64.771L64.1104 175.2L54.5918 175.197Z" fill="black"/>
<path d="M65.4648 174.482C66.0161 174.436 66.3925 174.258 66.594 173.946C66.7956 173.634 66.8964 172.955 66.8964 171.91V159.448C66.8964 158.363 66.777 157.657 66.5382 157.328C66.3793 157.109 66.0215 156.959 65.4648 156.876V156.161H70.7108C71.7962 156.161 72.6762 156.359 73.3507 156.753C74.6555 157.551 75.3079 158.986 75.3079 161.058C75.3079 162.591 74.9664 163.796 74.2834 164.675C73.7616 165.337 73.2088 165.758 72.625 165.94L76.0871 173.958C76.1402 174.126 76.2392 174.276 76.3732 174.392C76.485 174.465 76.6131 174.51 76.7465 174.523V175.196H73.3437L69.5479 166.395H69.5409V171.911C69.5409 172.902 69.6367 173.569 69.8282 173.912C70.0197 174.256 70.4015 174.447 70.9737 174.487V175.202H65.4648V174.482ZM71.8238 164.713C72.282 164.223 72.5111 163.088 72.5111 161.309C72.5111 160.218 72.4238 159.356 72.2494 158.723C71.947 157.65 71.3954 157.114 70.5945 157.114C70.1596 157.114 69.8747 157.208 69.7398 157.396C69.6049 157.584 69.5363 157.893 69.5363 158.324V165.49C70.6031 165.46 71.3656 165.2 71.8238 164.71V164.713Z" fill="black"/>
<path d="M77.5371 168.623H78.0023C78.262 170.727 78.6807 172.257 79.2583 173.214C79.8358 174.17 80.4983 174.648 81.2457 174.648C81.9714 174.648 82.4869 174.32 82.7924 173.663C83.0987 173.015 83.2575 172.309 83.2576 171.594C83.2576 170.751 83.0979 170.062 82.7785 169.525C82.5668 169.178 82.1404 168.724 81.4992 168.164L80.4607 167.254C79.4319 166.356 78.7055 165.466 78.2814 164.585C77.8573 163.703 77.6457 162.616 77.6464 161.322C77.6364 159.992 77.9235 158.676 78.4872 157.468C79.0478 156.275 79.9072 155.679 81.0654 155.679C81.6668 155.682 82.2563 155.844 82.7738 156.146C83.3243 156.459 83.6386 156.615 83.7169 156.614C83.7996 156.616 83.8807 156.591 83.9473 156.543C84.0139 156.494 84.0622 156.425 84.0844 156.346C84.164 156.116 84.219 155.879 84.2484 155.637H84.7333V161.772H84.2798C84.0666 160.351 83.6921 159.125 83.1564 158.094C82.6207 157.064 81.969 156.55 81.2015 156.553C80.6588 156.553 80.2324 156.813 79.9223 157.331C79.6122 157.85 79.4571 158.481 79.4571 159.224C79.4571 160.114 79.604 160.779 79.8979 161.219C80.1917 161.66 80.8383 162.321 81.8376 163.202L83.039 164.248C83.5525 164.69 83.9853 165.216 84.3182 165.803C84.9136 166.866 85.2113 168.159 85.2113 169.679C85.2179 171.076 84.8895 172.455 84.2531 173.702C83.6142 174.962 82.5908 175.592 81.1829 175.592C80.8491 175.59 80.5175 175.537 80.2002 175.434C79.8509 175.319 79.5203 175.154 79.2187 174.946L78.9059 174.739C78.8373 174.705 78.7666 174.675 78.6942 174.65C78.6391 174.63 78.581 174.618 78.5221 174.616C78.4435 174.613 78.3663 174.637 78.3029 174.683C78.2396 174.729 78.1939 174.795 78.1732 174.87C78.0952 175.105 78.0403 175.346 78.0093 175.592H77.5441L77.5371 168.623Z" fill="black"/>
<path d="M86.2773 174.483C86.7425 174.464 87.074 174.368 87.2717 174.194C87.6004 173.901 87.7647 173.337 87.7647 172.502V158.858C87.7647 158.029 87.6097 157.473 87.2996 157.191C87.1088 157.017 86.7693 156.912 86.2808 156.876V156.161H91.9792V156.881C91.4714 156.918 91.1225 157.018 90.9326 157.182C90.6147 157.465 90.4558 158.025 90.4558 158.862V172.507C90.4558 173.295 90.5829 173.822 90.8372 174.088C91.0915 174.354 91.4733 174.487 91.9827 174.487V175.202H86.2843L86.2773 174.483Z" fill="black"/>
<path d="M92.7851 156.161H102.591L102.607 161.842H102.142C101.987 159.81 101.547 158.435 100.822 157.718C100.414 157.322 99.8045 157.106 98.9928 157.069V171.908C98.9928 172.946 99.0975 173.636 99.3068 173.977C99.5161 174.318 99.9522 174.488 100.615 174.486V175.201H94.8051V174.486C95.4416 174.486 95.8645 174.314 96.0738 173.97C96.2832 173.626 96.3878 172.94 96.3878 171.912V157.069C95.5924 157.106 94.9826 157.322 94.5585 157.718C93.7794 158.453 93.3394 159.828 93.2386 161.842H92.7734L92.7851 156.161Z" fill="black"/>
<path d="M102.322 174.482C102.715 174.436 103.03 174.13 103.269 173.563C103.424 173.205 103.644 172.417 103.928 171.198L107.547 155.779H108.001L111.635 170.578C112.043 172.238 112.348 173.309 112.55 173.791C112.753 174.272 113.039 174.502 113.41 174.48V175.195H108.136V174.48C108.666 174.443 109.015 174.367 109.182 174.25C109.35 174.134 109.433 173.831 109.432 173.342C109.418 173.005 109.376 172.669 109.306 172.338C109.252 172.073 109.18 171.752 109.091 171.375L108.675 169.669H105.019C104.78 170.789 104.624 171.516 104.554 171.853C104.437 172.373 104.365 172.903 104.339 173.435C104.339 173.839 104.495 174.132 104.804 174.315C105.066 174.432 105.351 174.489 105.639 174.48V175.195H102.322V174.482ZM108.437 168.554L106.87 162.034H106.733L105.263 168.554H108.437Z" fill="black"/>
<path d="M114.359 168.623H114.824C115.084 170.727 115.503 172.257 116.08 173.214C116.658 174.17 117.32 174.648 118.066 174.648C118.792 174.648 119.308 174.32 119.614 173.663C119.918 173.015 120.075 172.309 120.072 171.594C120.072 170.751 119.913 170.062 119.594 169.525C119.383 169.178 118.954 168.724 118.309 168.164L117.272 167.254C116.243 166.356 115.516 165.466 115.093 164.585C114.669 163.703 114.458 162.616 114.458 161.322C114.448 159.992 114.735 158.676 115.299 157.468C115.859 156.275 116.718 155.679 117.876 155.679C118.477 155.682 119.067 155.843 119.585 156.146C120.136 156.459 120.45 156.615 120.527 156.614C120.61 156.617 120.691 156.592 120.758 156.543C120.825 156.495 120.873 156.425 120.895 156.346C120.975 156.116 121.03 155.879 121.06 155.637H121.545V161.772H121.091C120.879 160.351 120.504 159.125 119.968 158.094C119.431 157.064 118.78 156.55 118.013 156.553C117.47 156.553 117.044 156.813 116.734 157.331C116.424 157.85 116.268 158.481 116.268 159.224C116.268 160.114 116.415 160.779 116.708 161.219C117.001 161.66 117.648 162.321 118.648 163.202L119.85 164.248C120.364 164.69 120.797 165.216 121.13 165.803C121.725 166.866 122.023 168.159 122.023 169.679C122.029 171.076 121.7 172.455 121.064 173.702C120.425 174.962 119.401 175.592 117.993 175.592C117.66 175.59 117.329 175.537 117.012 175.434C116.662 175.319 116.332 175.155 116.03 174.946L115.717 174.739C115.649 174.705 115.578 174.675 115.506 174.65C115.45 174.63 115.392 174.618 115.333 174.616C115.255 174.613 115.178 174.637 115.114 174.683C115.051 174.729 115.005 174.795 114.985 174.87C114.907 175.105 114.852 175.346 114.821 175.592H114.355L114.359 168.623Z" fill="black"/>
<path d="M0 213.931C0.702412 213.847 1.2676 213.288 1.69556 212.253C1.97079 211.603 2.36502 210.168 2.87826 207.948L9.36278 179.889H10.1768L16.6893 206.822C17.4211 209.843 17.9673 211.791 18.3278 212.667C18.6884 213.543 19.2016 213.964 19.8676 213.931V215.232H10.4164V213.931C11.3661 213.865 11.991 213.723 12.2911 213.505C12.5911 213.287 12.7407 212.737 12.7399 211.853C12.7129 211.239 12.6351 210.628 12.5074 210.026C12.412 209.542 12.2833 208.958 12.1213 208.274L11.3793 205.171H4.83199C4.40403 207.208 4.12803 208.535 4.00398 209.151C3.74814 210.469 3.61983 211.427 3.61905 212.025C3.61905 212.76 3.89932 213.294 4.45985 213.627C4.79245 213.811 5.29135 213.911 5.95655 213.928V215.229H0V213.931ZM10.956 203.143L8.14868 191.278H7.90795L5.26925 203.143H10.956Z" fill="black"/>
<path d="M21.5566 213.931C22.6684 213.914 23.3906 213.569 23.7232 212.897C24.0558 212.225 24.2217 211.211 24.2209 209.856V185.499C24.2209 184.106 24.031 183.19 23.6511 182.752C23.2712 182.313 22.5967 182.027 21.6276 181.893V180.592H28.9808L34.7234 204.321H34.9664L40.6753 180.592H48.0332V181.893C47.0454 182.026 46.3709 182.346 46.0097 182.852C45.6484 183.357 45.4673 184.597 45.4666 186.572V209.25C45.4666 211.136 45.6468 212.371 46.0073 212.954C46.3678 213.538 47.0423 213.864 48.0308 213.931V215.232H38.3436V213.931C39.2073 213.881 39.8581 213.626 40.2962 213.167C40.7342 212.708 40.9524 211.703 40.9509 210.151V185.096H40.7381L33.5837 215.233H32.8011L25.5757 185.696H25.4467V208.874C25.4467 210.585 25.6273 211.835 25.9886 212.622C26.3499 213.41 27.148 213.846 28.3831 213.931V215.232H21.5566V213.931Z" fill="black"/>
<path d="M49.791 213.931C50.6167 213.898 51.2102 213.722 51.5715 213.405C52.1607 212.869 52.4553 211.842 52.4553 210.326V185.499C52.4553 183.989 52.175 182.978 51.6145 182.466C51.2726 182.151 50.6648 181.959 49.791 181.891V180.59H59.9934V181.891C59.0817 181.958 58.4549 182.14 58.113 182.438C57.5431 182.951 57.2582 183.971 57.2582 185.496V210.321C57.2582 211.757 57.4862 212.715 57.942 213.195C58.3979 213.674 59.0817 213.916 59.9934 213.921V215.222H49.791V213.931Z" fill="black"/>
<path d="M62.0156 213.931C62.808 213.881 63.3716 213.697 63.7065 213.381C64.2694 212.844 64.5512 211.826 64.552 210.326V185.499C64.552 184.023 64.2938 183.027 63.7775 182.51C63.4619 182.195 62.8746 181.988 62.0156 181.889V180.588H71.8901V181.889C70.8822 182.042 70.2031 182.374 69.8526 182.885C69.5022 183.396 69.3266 184.624 69.3258 186.57V197.566L75.6057 186.393C75.9203 185.864 76.2034 185.318 76.4535 184.757C76.5908 184.377 76.6558 183.974 76.6453 183.57C76.6453 182.92 76.4767 182.504 76.1395 182.322C75.8022 182.139 75.151 181.998 74.1857 181.897V180.596H82.6356V181.897C81.1246 182.114 79.8729 182.865 78.8805 184.15C77.8881 185.435 76.0088 188.563 73.2426 193.532L82.1483 212.888C82.3391 213.304 82.5271 213.566 82.7124 213.675C82.9829 213.81 83.2747 213.899 83.5753 213.937V215.238H73.7857V213.937C74.6695 213.919 75.2727 213.852 75.5952 213.736C75.9177 213.619 76.0794 213.328 76.0802 212.86C76.0679 212.575 76.0151 212.293 75.9232 212.022C75.7668 211.548 75.5811 211.084 75.3673 210.633L70.0655 198.99L69.3258 200.295V210.324C69.3258 211.809 69.6076 212.819 70.1713 213.353C70.4961 213.67 71.0598 213.862 71.8622 213.928V215.229H62.0156V213.931Z" fill="black"/>
<path d="M103.256 184.82C105.26 188.241 106.262 192.647 106.262 198.038C106.262 203.429 105.26 207.834 103.256 211.255C101.299 214.592 98.8524 216.261 95.9163 216.261C92.8012 216.261 90.2598 214.434 88.2921 210.78C86.4594 207.342 85.543 203.186 85.543 198.313C85.543 192.941 86.5024 188.527 88.4212 185.072C90.3595 181.568 92.8578 179.816 95.9163 179.816C98.8609 179.815 101.307 181.483 103.256 184.82ZM100.419 207.699C100.856 205.229 101.075 202.008 101.075 198.036C101.075 192.579 100.61 188.466 99.6796 185.696C98.7492 182.926 97.491 181.541 95.9047 181.54C93.6975 181.54 92.1857 183.852 91.3693 188.474C90.9413 190.926 90.7273 194.113 90.7273 198.036C90.7273 202.021 90.946 205.241 91.3832 207.699C92.1926 212.253 93.7006 214.531 95.907 214.531C98.0996 214.531 99.6036 212.254 100.419 207.699Z" fill="black"/>
<path d="M108.32 213.931C109.432 213.914 110.154 213.569 110.487 212.897C110.819 212.225 110.986 211.211 110.986 209.856V185.499C110.986 184.106 110.795 183.19 110.415 182.752C110.034 182.313 109.36 182.027 108.391 181.893V180.592H115.744L121.487 204.321H121.73L127.44 180.592H134.798V181.893C133.81 182.026 133.135 182.346 132.773 182.852C132.412 183.357 132.232 184.598 132.233 186.574V209.252C132.233 211.138 132.413 212.373 132.773 212.957C133.134 213.541 133.809 213.866 134.798 213.934V215.235H125.107V213.934C125.972 213.883 126.623 213.628 127.06 213.169C127.497 212.71 127.715 211.705 127.715 210.154V185.099H127.502L120.347 215.236H119.565L112.339 185.699H112.21V208.877C112.21 210.588 112.391 211.837 112.752 212.625C113.114 213.412 113.912 213.849 115.147 213.934V215.235H108.32V213.931Z" fill="black"/>
<path d="M18.3599 221.021V221.711C17.8288 221.764 17.4877 221.835 17.3365 221.923C17.1865 222.012 17.1109 222.199 17.1109 222.483C17.1121 222.619 17.1261 222.755 17.1528 222.889C17.1791 223.036 17.2431 223.3 17.3447 223.682L19.381 230.233H19.4007L21.0498 225.443C21.1552 225.149 21.2657 224.79 21.3812 224.365C21.5572 223.716 21.6448 223.237 21.644 222.926C21.644 222.446 21.537 222.121 21.3207 221.967C21.1758 221.861 20.8548 221.776 20.3578 221.714V221.025H23.7443V221.714C23.5348 221.776 23.3366 221.87 23.157 221.994C22.9423 222.211 22.7829 222.476 22.6918 222.766L19.7496 231.25V236.271C19.7496 237.31 19.8492 237.979 20.0485 238.276C20.2477 238.573 20.6222 238.735 21.1719 238.762V239.452H15.8224V238.762C16.3945 238.736 16.7744 238.563 16.9621 238.242C17.1497 237.922 17.2439 237.265 17.2446 236.271V232.263L14.4303 223.206C14.2443 222.611 14.016 222.193 13.7454 221.953C13.5943 221.815 13.4006 221.731 13.1953 221.714V221.025L18.3599 221.021Z" fill="black"/>
<path d="M33.9601 223.273C35.0184 225.092 35.5479 227.436 35.5487 230.304C35.5495 233.173 35.0199 235.516 33.9601 237.332C32.9267 239.108 31.6346 239.995 30.0841 239.995C28.4389 239.995 27.0969 239.023 26.058 237.079C25.0889 235.25 24.6047 233.039 24.6055 230.447C24.6055 227.587 25.1121 225.239 26.1254 223.4C27.1488 221.536 28.4668 220.604 30.0794 220.604C31.6408 220.607 32.9344 221.497 33.9601 223.273ZM32.4623 235.445C32.6948 234.132 32.8111 232.418 32.8111 230.304C32.8111 227.401 32.5661 225.212 32.0762 223.738C31.5862 222.264 30.9218 221.527 30.0829 221.527C28.92 221.527 28.121 222.757 27.6861 225.216C27.4605 226.519 27.3477 228.215 27.3477 230.304C27.3477 232.427 27.464 234.14 27.6965 235.445C28.1237 237.869 28.92 239.082 30.0852 239.082C31.2505 239.082 32.044 237.869 32.4657 235.445H32.4623Z" fill="black"/>
<path d="M38.1433 223.541C39.1682 221.631 40.4754 220.677 42.0647 220.678C42.702 220.678 43.337 220.888 43.9696 221.31C44.6023 221.731 44.9961 221.942 45.1512 221.943C45.3163 221.943 45.4493 221.841 45.55 221.636C45.6761 221.338 45.7595 221.025 45.7977 220.704H46.2269V227.084H45.835C45.4644 225.699 45.0856 224.607 44.6988 223.807C43.977 222.334 43.1594 221.597 42.2461 221.596C41.2522 221.596 40.5269 222.36 40.0703 223.888C39.6137 225.416 39.3853 227.564 39.3853 230.333C39.3853 232.606 39.5974 234.633 40.0215 236.413C40.4455 238.193 41.2646 239.083 42.4787 239.084C43.1354 239.084 43.5769 238.84 43.8033 238.351C43.9336 238.076 43.9987 237.658 43.9987 237.099V234.226C43.9987 233.401 43.856 232.859 43.5707 232.601C43.3847 232.441 43.0083 232.353 42.4415 232.335V231.646H47.7259V232.335C47.1944 232.371 46.8409 232.565 46.6688 232.901C46.4967 233.236 46.4083 233.884 46.4083 234.826V238.301C46.0672 238.675 45.5155 239.048 44.7534 239.421C43.9561 239.801 43.0801 239.992 42.195 239.979C40.4847 239.979 39.1175 239.025 38.0933 237.116C37.1397 235.331 36.6633 233.093 36.6641 230.403C36.6633 227.682 37.1564 225.395 38.1433 223.541Z" fill="black"/>
<path d="M53.4654 221.021V221.711C52.9328 221.764 52.5917 221.835 52.442 221.923C52.2909 222.012 52.2094 222.199 52.2094 222.483C52.2106 222.619 52.2247 222.755 52.2513 222.889C52.2792 223.036 52.3432 223.3 52.4432 223.682L54.4795 230.233H54.4993L56.1657 225.443C56.2704 225.149 56.3805 224.79 56.496 224.365C56.6712 223.716 56.7592 223.237 56.76 222.926C56.76 222.446 56.6522 222.127 56.4367 221.967C56.2902 221.861 55.9688 221.776 55.4726 221.714V221.025H58.8603V221.714C58.6507 221.776 58.4524 221.87 58.273 221.994C58.0579 222.211 57.8984 222.475 57.8078 222.766L54.8656 231.25V236.271C54.8656 237.31 54.9656 237.979 55.1656 238.276C55.3656 238.573 55.7397 238.735 56.2879 238.762V239.452H50.9325V238.762C51.5047 238.736 51.885 238.563 52.0734 238.242C52.2618 237.922 52.3556 237.265 52.3548 236.271V232.263L49.5405 223.206C49.3544 222.611 49.1261 222.193 48.8555 221.953C48.7048 221.815 48.5115 221.731 48.3066 221.714V221.025L53.4654 221.021Z" fill="black"/>
<path d="M58.0801 238.762C58.4514 238.718 58.7499 238.42 58.9755 237.869C59.1213 237.523 59.3295 236.759 59.6 235.578L63.0284 220.649H63.4575L66.8963 234.98C67.2839 236.589 67.5727 237.625 67.7627 238.09C67.9522 238.549 68.2278 238.779 68.5767 238.762V239.452H63.5819V238.762C64.0835 238.727 64.4134 238.65 64.5716 238.532C64.7297 238.414 64.8073 238.121 64.8042 237.653C64.7922 237.326 64.7533 237.001 64.6879 236.681C64.6383 236.423 64.5704 236.113 64.4844 235.749L64.0924 234.097H60.6316C60.4059 235.18 60.2606 235.885 60.1955 236.214C60.0842 236.718 60.0162 237.231 59.9919 237.746C59.9919 238.137 60.14 238.421 60.4362 238.599C60.6832 238.712 60.9536 238.767 61.2258 238.759V239.448H58.0801V238.762ZM63.8668 233.015L62.3841 226.702H62.2539L60.8583 233.015H63.8668Z" fill="black"/>
<path d="M69.3164 238.762C69.7351 238.736 70.0328 238.638 70.2095 238.469C70.5072 238.186 70.6561 237.644 70.6561 236.844V223.627C70.6561 222.843 70.52 222.314 70.2479 222.04C70.0805 221.873 69.7711 221.763 69.3176 221.71V221.02H74.5333V221.71C74.0023 221.786 73.6437 221.963 73.4576 222.24C73.2715 222.516 73.1785 223.17 73.1785 224.2V230.047L76.4952 224.102C76.6612 223.82 76.8107 223.53 76.9429 223.231C77.0153 223.029 77.0496 222.814 77.0441 222.599C77.0441 222.255 76.9549 222.033 76.7766 221.935C76.5987 221.839 76.2545 221.763 75.7451 221.705V221.016H80.2084V221.705C79.4107 221.82 78.7493 222.22 78.2245 222.904C77.6996 223.588 76.7069 225.256 75.2462 227.908L79.9503 238.207C80.0503 238.429 80.1503 238.568 80.248 238.625C80.3905 238.698 80.5448 238.745 80.7039 238.766V239.455H75.5335V238.766C75.9986 238.756 76.3173 238.721 76.4894 238.659C76.6592 238.597 76.7452 238.441 76.7452 238.192C76.7385 238.04 76.7107 237.89 76.6627 237.746C76.5793 237.494 76.4811 237.248 76.3684 237.007L73.5681 230.812L73.1773 231.502V236.843C73.1773 237.633 73.3262 238.17 73.6239 238.452C73.796 238.62 74.0937 238.723 74.517 238.759V239.448H69.3164V238.762Z" fill="black"/>
<path d="M81.2031 238.762C81.5745 238.718 81.873 238.42 82.0986 237.869C82.2443 237.523 82.4525 236.759 82.7231 235.578L86.1479 220.649H86.577L90.0112 234.98C90.3988 236.589 90.6876 237.625 90.8776 238.09C91.0675 238.554 91.3389 238.778 91.6916 238.762V239.452H86.705V238.762C87.2058 238.727 87.5357 238.65 87.6946 238.532C87.8536 238.414 87.9311 238.121 87.9272 237.653C87.9153 237.326 87.8764 237.001 87.8109 236.681C87.7605 236.423 87.6927 236.113 87.6074 235.749L87.2201 234.1H83.7546C83.529 235.183 83.3836 235.889 83.3185 236.217C83.2073 236.722 83.1392 237.234 83.115 237.749C83.115 238.14 83.2631 238.425 83.5592 238.602C83.8062 238.716 84.0766 238.77 84.3489 238.762V239.452H81.2089L81.2031 238.762ZM86.9899 233.015L85.5071 226.702H85.3769L83.9814 233.015H86.9899Z" fill="black"/>
<path d="M92.2988 238.762C92.8198 238.718 93.1761 238.545 93.3676 238.243C93.5591 237.941 93.6544 237.284 93.6536 236.272V224.204C93.6536 223.153 93.5405 222.468 93.3141 222.15C93.1637 221.939 92.8252 221.793 92.2988 221.713V221.024H97.2587C98.2868 221.024 99.1194 221.215 99.7567 221.598C100.992 222.372 101.609 223.762 101.608 225.768C101.608 227.251 101.285 228.418 100.639 229.27C100.146 229.911 99.6226 230.319 99.0706 230.495L102.345 238.252C102.395 238.413 102.489 238.559 102.616 238.671C102.72 238.741 102.84 238.785 102.965 238.798V239.451H99.7544L96.1586 230.927H96.1516V236.268C96.1516 237.227 96.242 237.873 96.4226 238.206C96.6032 238.539 96.9645 238.723 97.5064 238.759V239.448H92.2988V238.762ZM98.3159 229.299C98.75 228.824 98.9671 227.726 98.9671 226.002C98.9671 224.946 98.8841 224.111 98.7182 223.499C98.4321 222.46 97.9104 221.941 97.1529 221.941C96.7412 221.941 96.4699 222.032 96.3389 222.213C96.2109 222.396 96.147 222.695 96.147 223.112V230.052C97.1595 230.025 97.8825 229.775 98.3159 229.299Z" fill="black"/>
<path d="M103.056 221.021H112.336L112.351 226.522H111.908C111.762 224.554 111.345 223.223 110.658 222.528C110.271 222.145 109.694 221.936 108.928 221.901V236.267C108.928 237.271 109.027 237.938 109.224 238.267C109.422 238.595 109.835 238.76 110.463 238.76V239.449H104.968V238.76C105.569 238.76 105.969 238.593 106.168 238.26C106.367 237.927 106.466 237.262 106.465 236.267V221.901C105.712 221.936 105.135 222.145 104.734 222.528C103.997 223.241 103.581 224.572 103.485 226.522H103.041L103.056 221.021Z" fill="black"/>
<path d="M112.076 238.762C112.447 238.718 112.745 238.42 112.972 237.869C113.117 237.523 113.326 236.759 113.596 235.578L117.021 220.649H117.45L120.889 234.98C121.277 236.589 121.565 237.625 121.755 238.09C121.945 238.554 122.217 238.778 122.569 238.762V239.452H117.573V238.762C118.075 238.727 118.405 238.65 118.563 238.532C118.721 238.414 118.799 238.121 118.796 237.653C118.784 237.326 118.745 237.001 118.679 236.681C118.629 236.423 118.563 236.113 118.476 235.749L118.084 234.097H114.628C114.402 235.18 114.256 235.885 114.19 236.214C114.08 236.718 114.012 237.231 113.988 237.746C113.988 238.137 114.136 238.421 114.432 238.599C114.679 238.712 114.95 238.767 115.222 238.759V239.448H112.082L112.076 238.762ZM117.862 233.015L116.38 226.702H116.25L114.854 233.015H117.862Z" fill="black"/>
</g>
<defs>
<clipPath id="clip0_105_118">
<rect width="134.795" height="240" fill="white"/>
</clipPath>
</defs>
</svg>
