<svg width="279" height="101" viewBox="0 0 279 101" fill="none" xmlns="http://www.w3.org/2000/svg">
<g clip-path="url(#clip0_34_2016)">
<path d="M29.5001 43.0234L28.7397 49.2979C28.6942 49.673 28.5129 50.0185 28.2301 50.2691C27.9473 50.5197 27.5826 50.658 27.2047 50.658H6.62741C6.3007 50.6579 5.98239 50.5544 5.71817 50.3622C5.45395 50.1701 5.25741 49.8991 5.15674 49.5883L4.65234 48.0311H21.4723C21.8273 48.0311 22.1715 47.909 22.447 47.6852C22.7226 47.4613 22.9127 47.1495 22.9855 46.802L23.9068 42.4021L24.1392 41.2909H27.9657C28.1844 41.2909 28.4006 41.3374 28.6 41.4272C28.7994 41.517 28.9775 41.648 29.1225 41.8117C29.2676 41.9754 29.3762 42.168 29.4413 42.3768C29.5064 42.5856 29.5264 42.8058 29.5001 43.0229V43.0234Z" fill="#660066"/>
<path d="M23.9063 42.4021L22.9844 46.8021C22.9117 47.1495 22.7215 47.4614 22.446 47.6852C22.1704 47.909 21.8262 48.0312 21.4712 48.0312H4.65177L0.0750117 33.9018C-0.0251882 33.592 -0.0249991 33.2584 0.075552 32.9487C0.176103 32.639 0.371882 32.3689 0.634968 32.177L2.74 30.6421L6.25483 41.3397C6.35656 41.649 6.55331 41.9182 6.81704 42.1091C7.08077 42.2999 7.39802 42.4027 7.72356 42.4026L23.9063 42.4021Z" fill="#700070"/>
<path d="M29.449 42.4022H7.7238C7.39825 42.4022 7.08101 42.2994 6.81728 42.1086C6.55355 41.9177 6.35679 41.6485 6.25506 41.3393L2.74023 30.6416L4.34184 29.4739L7.87502 40.2276C7.97678 40.5369 8.17361 40.8062 8.43743 40.997C8.70126 41.1879 9.01862 41.2906 9.34424 41.2905H27.9653C28.2996 41.2905 28.6248 41.3988 28.8923 41.5992C29.1598 41.7997 29.3551 42.0814 29.449 42.4022Z" fill="#FFCC00"/>
<path d="M12.4952 41.2914H9.34275C9.01721 41.2915 8.69996 41.1887 8.43623 40.9979C8.1725 40.807 7.97575 40.5378 7.87402 40.2285L4.3418 29.4739L6.07143 28.2129C6.26821 28.0687 6.49638 27.9732 6.73722 27.9342C6.97805 27.8953 7.22469 27.914 7.4569 27.9888C7.68911 28.0636 7.90027 28.1924 8.07306 28.3647C8.24584 28.5369 8.37532 28.7477 8.45088 28.9796L12.4952 41.2914Z" fill="#FFAC00"/>
<path d="M12.4953 41.2914H12.0889C11.7634 41.2914 11.4461 41.1887 11.1824 40.9978C10.9187 40.807 10.7219 40.5378 10.6202 40.2285L6.5918 27.965C6.97261 27.8658 7.37693 27.9155 7.72237 28.104C8.06781 28.2925 8.32836 28.6057 8.45091 28.9796L12.4953 41.2914Z" fill="#FF7900"/>
<path d="M2.73925 30.6416L2.73828 30.6392" stroke="black" stroke-miterlimit="10"/>
<path d="M23.9063 42.4021L22.9844 46.8021C22.9117 47.1495 22.7215 47.4614 22.446 47.6852C22.1704 47.909 21.8262 48.0312 21.4712 48.0312H4.65177L0.0750117 33.9018C-0.0251882 33.592 -0.0249991 33.2584 0.075552 32.9487C0.176103 32.639 0.371882 32.3689 0.634968 32.177L2.74 30.6421L6.25483 41.3397C6.35656 41.649 6.55331 41.9182 6.81704 42.1091C7.08077 42.2999 7.39802 42.4027 7.72356 42.4026L23.9063 42.4021Z" fill="#700070"/>
<path d="M29.449 42.4022H7.7238C7.39825 42.4022 7.08101 42.2994 6.81728 42.1086C6.55355 41.9177 6.35679 41.6485 6.25506 41.3393L2.74023 30.6416L4.34184 29.4739L7.87502 40.2276C7.97678 40.5369 8.17361 40.8062 8.43743 40.997C8.70126 41.1879 9.01862 41.2906 9.34424 41.2905H27.9653C28.2996 41.2905 28.6248 41.3988 28.8923 41.5992C29.1598 41.7997 29.3551 42.0814 29.449 42.4022Z" fill="#FFCC00"/>
<path d="M12.4952 41.2914H9.34275C9.01721 41.2915 8.69996 41.1887 8.43623 40.9979C8.1725 40.807 7.97575 40.5378 7.87402 40.2285L4.3418 29.4739L6.07143 28.2129C6.26821 28.0687 6.49638 27.9732 6.73722 27.9342C6.97805 27.8953 7.22469 27.914 7.4569 27.9888C7.68911 28.0636 7.90027 28.1924 8.07306 28.3647C8.24584 28.5369 8.37532 28.7477 8.45088 28.9796L12.4952 41.2914Z" fill="#FFAC00"/>
<path d="M12.4953 41.2914H12.0889C11.7634 41.2914 11.4461 41.1887 11.1824 40.9978C10.9187 40.807 10.7219 40.5378 10.6202 40.2285L6.5918 27.965C6.97261 27.8658 7.37693 27.9155 7.72237 28.104C8.06781 28.2925 8.32836 28.6057 8.45091 28.9796L12.4953 41.2914Z" fill="#FF7900"/>
<path d="M2.73925 30.6416L2.73828 30.6392" stroke="black" stroke-miterlimit="10"/>
<path d="M15.1643 36.029C14.9894 36.1472 14.7921 36.2283 14.5845 36.2671L8.37572 37.4465C8.00673 37.5167 7.62479 37.4502 7.30124 37.2594C6.97769 37.0686 6.73468 36.7666 6.61758 36.4097L0.186539 16.8267C0.0845633 16.5161 0.0836395 16.1812 0.1839 15.8701C0.284161 15.559 0.480446 15.2877 0.744563 15.0951L2.04903 14.1428L7.34519 30.2622C7.46136 30.6159 7.70124 30.9158 8.02075 31.1068C8.34027 31.2978 8.71797 31.3671 9.08449 31.3019L13.3612 30.541L14.4724 30.3434L15.7634 34.2645C15.869 34.5838 15.8676 34.9287 15.7595 35.2471C15.6514 35.5655 15.4424 35.84 15.1643 36.029Z" fill="#660066"/>
<path d="M8.36974 15.345L13.362 30.5411L9.08527 31.3016C8.71875 31.3667 8.34105 31.2974 8.02153 31.1064C7.70202 30.9154 7.46214 30.6155 7.34597 30.2619L2.05078 14.1429L14.0365 5.40539C14.3007 5.21324 14.619 5.10974 14.9457 5.10974C15.2724 5.10974 15.5908 5.21324 15.855 5.40539L18.0291 6.98235L8.92825 13.6134C8.66404 13.8059 8.46766 14.0772 8.36731 14.3883C8.26696 14.6995 8.26781 15.0344 8.36974 15.345Z" fill="#700070"/>
<path d="M15.7659 34.2647C15.8713 34.5841 15.8697 34.9292 15.7612 35.2477C15.6527 35.5661 15.4434 35.8404 15.1649 36.0291L13.3623 30.5412L8.37004 15.345C8.26811 15.0344 8.26726 14.6995 8.36761 14.3884C8.46796 14.0773 8.66434 13.806 8.92855 13.6135L18.0284 6.97998L19.6315 8.14289L10.49 14.8068C10.2259 14.9994 10.0296 15.2707 9.92938 15.5818C9.82912 15.8929 9.83005 16.2278 9.93202 16.5384L10.435 18.0748L10.9099 19.5218L14.473 30.344L15.7659 34.2647Z" fill="#FFCC00"/>
<path d="M21.3728 11.8954L10.912 19.5217L10.7878 19.1434L9.93263 16.5383C9.83066 16.2278 9.82973 15.8929 9.92999 15.5818C10.0303 15.2706 10.2265 14.9993 10.4907 14.8067L19.6316 8.14282L21.3637 9.39898C21.5605 9.5418 21.7208 9.72903 21.8317 9.94546C21.9425 10.1619 22.0008 10.4014 22.0017 10.6446C22.0026 10.8878 21.9461 11.1277 21.8368 11.345C21.7276 11.5622 21.5686 11.7506 21.3728 11.8949V11.8954Z" fill="#FFAC00"/>
<path d="M21.3732 11.8954L10.9123 19.5217L10.7881 19.1434C10.6861 18.8329 10.6852 18.498 10.7855 18.1869C10.8857 17.8758 11.082 17.6044 11.3461 17.4118L21.7606 9.81982C21.9712 10.1505 22.0483 10.5487 21.9764 10.934C21.9045 11.3194 21.6888 11.663 21.3732 11.8954Z" fill="#FF7900"/>
<path d="M45.9911 11.6674L45.1698 14.2382L36.1351 7.6443C35.8706 7.45148 35.5517 7.34759 35.2244 7.34759C34.8971 7.34759 34.5782 7.45148 34.3137 7.6443L33.6262 8.14531L31.4091 9.75947L21.4849 16.9887L19.4727 13.1129C19.3024 12.7848 19.2553 12.4065 19.3399 12.0467C19.4246 11.6868 19.6353 11.3692 19.9341 11.1514L33.5189 1.24707L45.4302 9.94838C45.6923 10.1398 45.8875 10.4088 45.9882 10.7173C46.0889 11.0259 46.0899 11.3582 45.9911 11.6674Z" fill="#700070"/>
<path d="M21.4844 16.9886L22.0013 17.9844L18.0686 20.8508C17.9554 20.9329 17.826 20.99 17.689 21.0182C17.5521 21.0465 17.4107 21.0452 17.2742 21.0146C17.1378 20.984 17.0094 20.9247 16.8976 20.8406C16.7858 20.7566 16.6932 20.6497 16.626 20.5271L13.2923 14.4497C13.1116 14.1204 13.0569 13.7366 13.1385 13.3699C13.2201 13.0032 13.4325 12.6788 13.7358 12.4573L30.3939 0.297165C30.6586 0.103904 30.9779 -0.000244141 31.3056 -0.000244141C31.6333 -0.000244141 31.9526 0.103904 32.2173 0.297165L33.5184 1.2475L19.9335 11.1518C19.6348 11.3696 19.424 11.6872 19.3393 12.0471C19.2547 12.407 19.3018 12.7852 19.4721 13.1134L21.4844 16.9886Z" fill="#660066"/>
<path d="M45.1683 14.2382L44.5793 16.1485L35.4698 9.49477C35.2052 9.30173 34.8861 9.19772 34.5586 9.19772C34.2311 9.19772 33.912 9.30173 33.6474 9.49477L32.3429 10.4441L31.1128 11.3408L22.0004 17.9845L18.0676 20.8509C17.9544 20.933 17.825 20.9901 17.6881 21.0183C17.5511 21.0466 17.4097 21.0453 17.2733 21.0147C17.1368 20.9841 17.0084 20.9248 16.8967 20.8408C16.7849 20.7567 16.6923 20.6498 16.625 20.5272L21.4834 16.9887L34.3103 7.64387C34.5748 7.45106 34.8936 7.34717 35.221 7.34717C35.5483 7.34717 35.8672 7.45106 36.1317 7.64387L45.1683 14.2382Z" fill="#FFCC00"/>
<path d="M44.5813 16.1484L43.9343 18.18C43.8599 18.4134 43.7311 18.6257 43.5585 18.7996C43.3859 18.9734 43.1745 19.1038 42.9417 19.1799C42.7088 19.256 42.4612 19.2757 42.2193 19.2373C41.9773 19.199 41.748 19.1037 41.5501 18.9593L31.1172 11.3397L31.4356 11.1078L33.6493 9.49364C33.914 9.30049 34.2331 9.19641 34.5608 9.19641C34.8884 9.19641 35.2075 9.30049 35.4722 9.49364L44.5813 16.1484Z" fill="#FFAC00"/>
<path d="M43.6507 18.6974C43.3993 19 43.0419 19.1954 42.6514 19.2437C42.2609 19.292 41.8667 19.1896 41.5491 18.9573L31.1172 11.3397L31.4356 11.1078C31.7002 10.9146 32.0194 10.8105 32.347 10.8105C32.6746 10.8105 32.9938 10.9146 33.2585 11.1078L43.6507 18.6974Z" fill="#FF7900"/>
<path d="M38.6938 11.849C38.3888 11.6266 38.0129 11.5234 37.637 11.559C37.2612 11.5946 36.9114 11.7665 36.6535 12.0423L31.9188 17.0998C31.8226 17.2024 31.7494 17.3243 31.7038 17.4574C31.6583 17.5905 31.6416 17.7317 31.6547 17.8718C31.6679 18.0118 31.7106 18.1474 31.7801 18.2697C31.8497 18.392 31.9443 18.4981 32.0579 18.5811L35.8911 21.3833C35.8923 21.3842 35.8937 21.3848 35.8952 21.3848C35.8967 21.3848 35.8982 21.3842 35.8993 21.3833L36.6801 20.5808L39.7045 17.4694C39.964 17.2015 40.3116 17.0365 40.6832 17.0047C41.0547 16.9729 41.4253 17.0765 41.7265 17.2964L55.4244 27.3022C55.4252 27.3028 55.4262 27.3031 55.4271 27.3033C55.4281 27.3034 55.4292 27.3033 55.4301 27.303C55.431 27.3027 55.4319 27.3021 55.4326 27.3014C55.4333 27.3006 55.4338 27.2998 55.4341 27.2988L55.9269 25.7431C56.0246 25.4344 56.023 25.1028 55.9222 24.795C55.8213 24.4873 55.6264 24.219 55.365 24.028L38.6938 11.849Z" fill="#660066"/>
<path d="M55.4317 27.3055L50.9941 41.3213C50.895 41.6343 50.6988 41.9077 50.434 42.1017C50.1691 42.2958 49.8494 42.4005 49.521 42.4007H46.7985L50.1974 31.761C50.2962 31.4519 50.2951 31.1195 50.1945 30.8109C50.0938 30.5024 49.8986 30.2334 49.6365 30.042L36.6816 20.5768L39.7061 17.4654C39.966 17.1986 40.3135 17.0345 40.6847 17.0034C41.056 16.9724 41.4259 17.0764 41.7266 17.2963L55.4317 27.3055Z" fill="#700070"/>
<path d="M50.1978 31.761L46.799 42.4007H44.821L48.2373 31.7054C48.336 31.3963 48.335 31.0639 48.2343 30.7554C48.1336 30.4469 47.9384 30.1778 47.6763 29.9864L46.3559 29.0202L45.122 28.1191L32.0599 18.5796C31.9463 18.4966 31.8516 18.3905 31.7821 18.2682C31.7126 18.1459 31.6699 18.0103 31.6567 17.8703C31.6435 17.7302 31.6603 17.589 31.7058 17.4559C31.7513 17.3228 31.8246 17.2009 31.9207 17.0983L49.6364 30.042C49.8986 30.2333 50.0939 30.5023 50.1947 30.8109C50.2954 31.1194 50.2965 31.4518 50.1978 31.761Z" fill="#FFCC00"/>
<path d="M48.2363 31.7055L44.82 42.4007H42.6764C42.4333 42.4014 42.1936 42.3446 41.9766 42.2351C41.7597 42.1256 41.5716 41.9664 41.4279 41.7704C41.2841 41.5745 41.1887 41.3473 41.1493 41.1075C41.1099 40.8677 41.1278 40.622 41.2013 40.3903L45.121 28.1187L45.4549 28.3602L45.4665 28.3689L47.6754 29.9821C47.9383 30.1738 48.1341 30.4436 48.2348 30.753C48.3355 31.0624 48.3361 31.3957 48.2363 31.7055Z" fill="#FFAC00"/>
<path d="M46.017 30.0841L42.1157 42.2963C41.75 42.1539 41.4522 41.8777 41.2826 41.5237C41.113 41.1698 41.0844 40.7646 41.2026 40.3903L45.1223 28.1187L45.4561 28.3602L45.4677 28.3689C45.727 28.5616 45.9194 28.8306 46.0179 29.1382C46.1164 29.4459 46.1161 29.7766 46.017 30.0841Z" fill="#FF7900"/>
<path d="M42.8766 39.9106L37.6896 56.1479H22.8844C22.5605 56.148 22.2448 56.0464 21.9818 55.8574C21.7188 55.6684 21.5218 55.4016 21.4185 55.0946L20.5547 52.5243L31.7867 52.5727C32.1156 52.5741 32.4364 52.4706 32.7024 52.2771C32.9685 52.0837 33.1659 51.8105 33.266 51.4972L38.138 36.2469L42.0466 38.0346C42.3904 38.1917 42.6646 38.4694 42.8176 38.8151C42.9705 39.1607 42.9915 39.5505 42.8766 39.9106Z" fill="#700070"/>
<path d="M39.9252 30.6546C39.7991 30.5948 39.6616 30.5627 39.522 30.5603C39.3824 30.558 39.2439 30.5855 39.1158 30.641C38.9877 30.6966 38.873 30.7788 38.7793 30.8823C38.6856 30.9858 38.615 31.1082 38.5725 31.2411L37.123 35.7826L38.1405 36.2479L42.0491 38.0355C42.393 38.1927 42.6674 38.4704 42.8203 38.8162C42.9733 39.162 42.9942 39.5518 42.8791 39.912L37.6902 56.1479H39.2996C39.6275 56.1479 39.9469 56.0437 40.2117 55.8503C40.4765 55.6569 40.673 55.3843 40.7727 55.0719L47.0225 35.5048C47.1364 35.1484 47.1171 34.7628 46.9683 34.4195C46.8195 34.0762 46.5512 33.7986 46.2133 33.638L39.9252 30.6546Z" fill="#660066"/>
<path d="M39.9247 30.6546L33.2661 51.4981C33.166 51.8115 32.9686 52.0847 32.7025 52.2781C32.4365 52.4715 32.1156 52.575 31.7867 52.5736L20.5547 52.5253L19.918 50.6309L28.5758 50.641H31.2446C31.5726 50.6411 31.892 50.5369 32.1568 50.3435C32.4216 50.1501 32.618 49.8775 32.7177 49.5651L33.6695 46.5861L38.5705 31.2411C38.613 31.1082 38.6836 30.9858 38.7773 30.8823C38.871 30.7788 38.9857 30.6966 39.1138 30.641C39.2419 30.5855 39.3804 30.558 39.52 30.5603C39.6596 30.5627 39.7971 30.5948 39.9232 30.6546H39.9247Z" fill="#FFCC00"/>
<path d="M29.0681 46.5842L28.7391 49.298C28.6984 49.6332 28.5492 49.9458 28.3142 50.1881C28.0791 50.4305 27.7712 50.5892 27.4375 50.6402H31.2456C31.5734 50.6402 31.8926 50.536 32.1573 50.3427C32.422 50.1493 32.6184 49.8769 32.7182 49.5647L33.67 46.5852L29.0681 46.5842Z" fill="#FFAC00"/>
<path d="M33.6703 46.5852L33.5558 46.9422C33.4562 47.2545 33.2598 47.5271 32.9951 47.7205C32.7304 47.9139 32.4111 48.0181 32.0832 48.0182H28.8945L29.0685 46.5842L33.6703 46.5852Z" fill="#FF7900"/>
<path d="M26.6406 38.9661C31.883 38.9661 36.1328 34.7163 36.1328 29.4739C36.1328 24.2315 31.883 19.9817 26.6406 19.9817C21.3982 19.9817 17.1484 24.2315 17.1484 29.4739C17.1484 34.7163 21.3982 38.9661 26.6406 38.9661Z" fill="#FFCC00"/>
<path d="M26.6409 36.7827C30.6775 36.7827 33.9498 33.5104 33.9498 29.4738C33.9498 25.4372 30.6775 22.1649 26.6409 22.1649C22.6043 22.1649 19.332 25.4372 19.332 29.4738C19.332 33.5104 22.6043 36.7827 26.6409 36.7827Z" fill="#FF9919"/>
<path d="M26.6414 31.9708C28.0204 31.9708 29.1382 30.8529 29.1382 29.4739C29.1382 28.0949 28.0204 26.9771 26.6414 26.9771C25.2624 26.9771 24.1445 28.0949 24.1445 29.4739C24.1445 30.8529 25.2624 31.9708 26.6414 31.9708Z" fill="#FF7900"/>
<path d="M7.67341 65.6458V65.9482C7.4109 65.9637 7.23585 66.0347 7.14824 66.1613C7.06063 66.2878 7.0165 66.5777 7.01586 67.0309V70.9989C7.01586 71.6016 7.0566 72.067 7.13809 72.3952C7.28593 73.0055 7.56905 73.3106 7.98745 73.3102C8.5073 73.3102 8.85855 72.9721 9.04117 72.2957C9.14263 71.9253 9.19336 71.4064 9.19336 70.739V67.1155C9.19336 66.6913 9.14875 66.3993 9.05953 66.2395C8.97031 66.0798 8.79574 65.9831 8.53581 65.9496V65.6491H10.0229V65.9482C9.80678 66.0216 9.6641 66.1113 9.59485 66.2173C9.5256 66.3233 9.49081 66.5671 9.49049 66.9488V70.7361C9.49049 71.742 9.35183 72.5187 9.07451 73.0663C8.79719 73.6138 8.36107 73.8876 7.76617 73.8876C6.98832 73.8876 6.45687 73.4806 6.17182 72.6667C6.0185 72.2332 5.94184 71.6748 5.94184 70.9917V67.0275C5.94184 66.583 5.90835 66.3033 5.84135 66.1883C5.77419 66.0728 5.62249 65.9951 5.38672 65.9467V65.6462L7.67341 65.6458Z" fill="black"/>
<path d="M10.2734 73.3475C10.5247 73.3359 10.6867 73.2521 10.7595 73.0962C10.8319 72.9397 10.8682 72.7097 10.8682 72.4048V66.7966C10.6614 66.3917 10.5337 66.1537 10.4851 66.0825C10.4394 66.0129 10.3683 65.964 10.287 65.9463V65.6458H11.7209L14.0467 70.5931H14.0801V67.1145C14.0801 66.7135 14.0384 66.4273 13.9549 66.256C13.8715 66.0846 13.705 65.982 13.4554 65.9482V65.6477H14.9091V65.9482C14.6979 66.0094 14.5565 66.0918 14.4849 66.1956C14.4134 66.2993 14.3775 66.531 14.3772 66.8908V73.8697H14.1893L11.2122 67.5406H11.1639V72.1807C11.1639 72.5445 11.1924 72.8025 11.2499 72.9537C11.3404 73.1978 11.5254 73.3296 11.805 73.3489V73.6494H10.2734V73.3475Z" fill="black"/>
<path d="M15.1621 73.3474C15.3554 73.3397 15.4931 73.2993 15.5752 73.2262C15.7121 73.1028 15.7804 72.8658 15.78 72.515V66.7792C15.78 66.4307 15.7156 66.1972 15.5868 66.0786C15.5071 66.0057 15.3665 65.9617 15.1636 65.9463V65.6458H17.5309V65.9482C17.3193 65.9637 17.1744 66.0059 17.0961 66.0748C16.9641 66.1936 16.898 66.4291 16.898 66.7811V72.5169C16.898 72.8484 16.9508 73.07 17.0565 73.1817C17.1621 73.2935 17.3208 73.3494 17.5324 73.3494V73.6499H15.165L15.1621 73.3474Z" fill="black"/>
<path d="M20.0642 65.6459V65.9358C19.8223 65.9589 19.6655 65.9947 19.5936 66.043C19.5221 66.0913 19.4859 66.2116 19.4859 66.4049C19.4857 66.462 19.4886 66.5191 19.4946 66.5759C19.501 66.6336 19.5115 66.6908 19.526 66.7469L20.5986 71.1276H20.5884L21.4755 67.1175C21.4954 67.0289 21.513 66.9383 21.5281 66.8455C21.5515 66.7251 21.5647 66.6029 21.5677 66.4803C21.5677 66.2548 21.5297 66.1147 21.4537 66.0599C21.3777 66.0052 21.2229 65.9638 20.9894 65.9358V65.6459H22.4301V65.9358C22.3535 65.9475 22.2804 65.9762 22.2162 66.0196C22.1519 66.0631 22.0981 66.1202 22.0586 66.187C21.9762 66.3236 21.8956 66.5635 21.817 66.9069L20.2739 73.8684H20.098L18.3563 66.774C18.2863 66.4885 18.2138 66.2836 18.1404 66.158C18.1043 66.0964 18.0542 66.0442 17.9942 66.0056C17.9342 65.967 17.8659 65.9431 17.7949 65.9358V65.6459H20.0642Z" fill="black"/>
<path d="M22.6816 73.6481V73.3476C22.8749 73.336 23.0126 73.2898 23.0947 73.2089C23.2203 73.0856 23.2831 72.8543 23.2831 72.5151V66.7793C23.2831 66.4347 23.2187 66.2031 23.0899 66.0846C23.0148 66.0114 22.8794 65.9654 22.6836 65.9464V65.6459H26.5825V68.034H26.4173C26.3313 67.2707 26.1854 66.7484 25.9795 66.4672C25.7737 66.186 25.398 66.0453 24.8524 66.0449C24.6453 66.0449 24.5137 66.0825 24.4577 66.1575C24.4016 66.2326 24.3734 66.382 24.3731 66.6059V69.3462C24.7596 69.3546 25.0207 69.2324 25.1563 68.9795C25.2919 68.7267 25.3966 68.265 25.4703 67.5944H25.6423V71.5957H25.4703C25.422 70.9213 25.3234 70.4462 25.1746 70.1705C25.0258 69.8947 24.7586 69.7569 24.3731 69.7569V72.6248C24.3731 72.8757 24.41 73.0463 24.4837 73.1364C24.5575 73.2266 24.709 73.272 24.9384 73.2727C25.37 73.2727 25.7223 73.1261 25.9955 72.833C26.2686 72.5399 26.511 71.9906 26.7226 71.185H26.9105L26.6361 73.6491L22.6816 73.6481Z" fill="black"/>
<path d="M27.1953 73.3476C27.4243 73.3282 27.5807 73.253 27.6644 73.1219C27.7482 72.9909 27.7901 72.7056 27.7901 72.2663V67.0276C27.7901 66.5716 27.7405 66.2744 27.6412 66.1363C27.5752 66.0445 27.4266 65.9812 27.1953 65.9464V65.6459H29.3747C29.8257 65.6459 30.1912 65.7288 30.4715 65.8947C31.0135 66.23 31.2846 66.8333 31.2846 67.7045C31.2846 68.3487 31.1427 68.8555 30.8589 69.225C30.6422 69.5029 30.4125 69.6801 30.17 69.7564L31.6083 73.1273C31.6303 73.1978 31.6715 73.2608 31.7271 73.3094C31.7736 73.3401 31.8268 73.359 31.8822 73.3645V73.6476H30.4686L28.8916 69.9477H28.8887V72.2668C28.8887 72.6833 28.9285 72.9636 29.008 73.1079C29.0876 73.2522 29.2462 73.3328 29.4839 73.3495V73.65H27.1953V73.3476ZM29.8371 69.2409C30.0275 69.0348 30.1226 68.5577 30.1226 67.8098C30.1226 67.3512 30.0864 66.9888 30.0139 66.7228C29.8883 66.2719 29.6592 66.0464 29.3264 66.0464C29.1457 66.0464 29.0274 66.0859 28.9713 66.1648C28.9153 66.244 28.8868 66.374 28.8868 66.5551V69.5675C29.33 69.5549 29.6468 69.4456 29.8371 69.2395V69.2409Z" fill="black"/>
<path d="M32.2109 70.8845H32.4042C32.5121 71.769 32.686 72.4122 32.926 72.8142C33.1659 73.2161 33.4412 73.4171 33.7517 73.4171C34.0531 73.4171 34.2673 73.2791 34.3942 73.0031C34.5215 72.7308 34.5874 72.4339 34.5875 72.1334C34.5875 71.7791 34.5211 71.4892 34.3884 71.2638C34.3005 71.1175 34.1234 70.9267 33.857 70.6913L33.4255 70.3091C32.9981 69.9313 32.6963 69.5572 32.5201 69.1868C32.344 68.8164 32.256 68.3591 32.2564 67.8151C32.2522 67.256 32.3714 66.7029 32.6057 66.1952C32.8385 65.6937 33.1956 65.4429 33.6768 65.4429C33.9266 65.4444 34.1715 65.5123 34.3865 65.6396C34.6152 65.771 34.7458 65.8365 34.7783 65.8362C34.8127 65.8371 34.8464 65.8266 34.874 65.8062C34.9017 65.7858 34.9217 65.7567 34.931 65.7236C34.9641 65.6269 34.9869 65.527 34.9991 65.4255H35.2006V68.0045H35.0122C34.9236 67.407 34.768 66.8917 34.5455 66.4585C34.3229 66.0253 34.0522 65.8093 33.7333 65.8106C33.5078 65.8106 33.3307 65.9196 33.2019 66.1377C33.073 66.3557 33.0086 66.621 33.0086 66.9334C33.0086 67.3074 33.0696 67.5869 33.1917 67.7721C33.3138 67.9573 33.5824 68.2351 33.9976 68.6055L34.4967 69.0452C34.71 69.231 34.8898 69.4521 35.0281 69.6989C35.2755 70.146 35.3992 70.6892 35.3992 71.3285C35.4019 71.9157 35.2655 72.4952 35.0011 73.0195C34.7357 73.549 34.3105 73.8138 33.7256 73.8138C33.5869 73.813 33.4492 73.7907 33.3173 73.7476C33.1722 73.6992 33.0349 73.63 32.9096 73.5422L32.7796 73.4553C32.7511 73.441 32.7217 73.4286 32.6917 73.4181C32.6688 73.4094 32.6446 73.4045 32.6202 73.4036C32.5875 73.4024 32.5554 73.4124 32.5291 73.4317C32.5028 73.4511 32.4838 73.4788 32.4752 73.5104C32.4428 73.6091 32.42 73.7107 32.4071 73.8138H32.2138L32.2109 70.8845Z" fill="black"/>
<path d="M35.8457 73.3476C36.039 73.3398 36.1767 73.2994 36.2588 73.2263C36.3954 73.1029 36.4636 72.8659 36.4636 72.5151V66.7793C36.4636 66.4308 36.3992 66.1973 36.2704 66.0788C36.1911 66.0056 36.0501 65.9615 35.8472 65.9464V65.6459H38.2145V65.9483C38.0036 65.9638 37.8586 66.006 37.7797 66.0749C37.6476 66.1938 37.5816 66.4292 37.5816 66.7812V72.5171C37.5816 72.8485 37.6344 73.0701 37.7401 73.1819C37.8457 73.2936 38.0044 73.3495 38.216 73.3495V73.65H35.8486L35.8457 73.3476Z" fill="black"/>
<path d="M38.5478 65.6458H42.6216L42.6284 68.0339H42.4351C42.3707 67.1797 42.1879 66.6017 41.8868 66.2999C41.7173 66.1337 41.464 66.0429 41.1268 66.0274V72.2652C41.1268 72.7017 41.1703 72.9915 41.2572 73.1349C41.3442 73.2782 41.5254 73.3495 41.8008 73.3489V73.6494H39.387V73.3489C39.6514 73.3489 39.8271 73.2766 39.9141 73.132C40.0011 72.9873 40.0446 72.6989 40.0446 72.2667V66.0274C39.7141 66.0429 39.4608 66.1337 39.2846 66.2999C38.9609 66.6091 38.7781 67.1871 38.7362 68.0339H38.543L38.5478 65.6458Z" fill="black"/>
<path d="M42.5078 73.3474C42.6708 73.3281 42.8019 73.1993 42.9011 72.9609C42.9655 72.8105 43.0568 72.4791 43.175 71.9666L44.6785 65.4849H44.867L46.3768 71.7062C46.5462 72.4039 46.6729 72.854 46.757 73.0566C46.8411 73.2592 46.9601 73.3558 47.114 73.3465V73.647H44.923V73.3465C45.1433 73.331 45.2883 73.2988 45.3578 73.2499C45.4274 73.2009 45.462 73.0737 45.4617 72.8682C45.4558 72.7262 45.4382 72.585 45.4091 72.4459C45.3868 72.3345 45.357 72.1995 45.3197 72.041L45.1472 71.3241H43.6282C43.5287 71.7946 43.4643 72.1006 43.435 72.242C43.3863 72.4608 43.3564 72.6834 43.3456 72.9073C43.3456 73.0769 43.4103 73.2001 43.5388 73.2769C43.6476 73.3264 43.7663 73.3502 43.8857 73.3465V73.647H42.5078V73.3474ZM45.0482 70.8554L44.3974 68.1146H44.3404L43.7297 70.8554H45.0482Z" fill="black"/>
<path d="M47.5093 70.8845H47.7025C47.8104 71.769 47.9843 72.4122 48.2243 72.8142C48.4643 73.2161 48.7393 73.4171 49.0495 73.4171C49.351 73.4171 49.5653 73.2791 49.6926 73.0031C49.8188 72.7306 49.8838 72.4337 49.8829 72.1334C49.8829 71.7791 49.8167 71.4892 49.6843 71.2638C49.5964 71.1175 49.4185 70.9267 49.1505 70.6913L48.7195 70.3091C48.2918 69.9313 47.99 69.5572 47.8141 69.1868C47.6383 68.8164 47.5503 68.3591 47.5503 67.8151C47.5461 67.256 47.6654 66.7029 47.8996 66.1952C48.1325 65.6937 48.4894 65.4429 48.9703 65.4429C49.2203 65.4444 49.4654 65.5122 49.6805 65.6396C49.9092 65.771 50.0396 65.8365 50.0718 65.8362C50.1062 65.8373 50.14 65.8268 50.1677 65.8064C50.1954 65.786 50.2154 65.7568 50.2245 65.7236C50.2578 65.6269 50.2807 65.527 50.2931 65.4255H50.4946V68.0045H50.3061C50.2179 67.407 50.0623 66.8917 49.8394 66.4585C49.6165 66.0253 49.3458 65.8093 49.0273 65.8106C48.8018 65.8106 48.6247 65.9196 48.4958 66.1377C48.367 66.3557 48.3026 66.621 48.3026 66.9334C48.3026 67.3074 48.3634 67.5869 48.4852 67.7721C48.6069 67.9573 48.8756 68.2351 49.2911 68.6055L49.7906 69.0452C50.004 69.231 50.1838 69.4521 50.3221 69.6989C50.5695 70.146 50.6931 70.6892 50.6931 71.3285C50.6956 71.9157 50.5592 72.4951 50.295 73.0195C50.0293 73.549 49.604 73.8138 49.0191 73.8138C48.8805 73.813 48.743 73.7907 48.6113 73.7476C48.4661 73.6993 48.3288 73.6301 48.2035 73.5422L48.0736 73.4553C48.0451 73.4411 48.0157 73.4286 47.9856 73.4181C47.9627 73.4094 47.9386 73.4046 47.9141 73.4036C47.8815 73.4024 47.8494 73.4124 47.8231 73.4317C47.7968 73.4511 47.7778 73.4788 47.7692 73.5104C47.7368 73.6091 47.714 73.7107 47.7011 73.8138H47.5078L47.5093 70.8845Z" fill="black"/>
<path d="M0 89.9308C0.291815 89.8953 0.52662 89.6602 0.704415 89.2254C0.818757 88.9519 0.982541 88.3487 1.19577 87.4156L3.88974 75.6202H4.22794L6.93351 86.9421C7.23756 88.2121 7.46448 89.0312 7.61425 89.3993C7.76402 89.7675 7.97725 89.9446 8.25392 89.9308V90.4777H4.32746V89.9308C4.72203 89.9028 4.98163 89.843 5.10628 89.7515C5.23093 89.6601 5.2931 89.4286 5.29277 89.0573C5.28153 88.799 5.24921 88.5421 5.19615 88.2891C5.15653 88.0855 5.10306 87.8401 5.03574 87.5528L4.7275 86.2483H2.00744C1.82964 87.1044 1.71498 87.6621 1.66344 87.9214C1.55715 88.4754 1.50385 88.878 1.50352 89.1293C1.50352 89.4385 1.61996 89.663 1.85283 89.8027C1.99101 89.88 2.19828 89.9222 2.47463 89.9293V90.4762H0V89.9308ZM4.55164 85.3956L3.38535 80.4081H3.28534L2.1891 85.3956H4.55164Z" fill="black"/>
<path d="M8.95703 89.9307C9.41891 89.9233 9.71894 89.7784 9.85712 89.4959C9.99529 89.2134 10.0642 88.7873 10.0639 88.2175V77.9784C10.0639 77.3928 9.98499 77.0079 9.82716 76.8237C9.66934 76.6395 9.38912 76.5192 8.9865 76.4628V75.9159H12.0414L14.4271 85.8907H14.5281L16.8998 75.9159H19.9566V76.4628C19.5463 76.5188 19.2661 76.6532 19.116 76.8657C18.9659 77.0783 18.8907 77.5996 18.8903 78.4297V87.9629C18.8903 88.7556 18.9652 89.2746 19.115 89.5201C19.2648 89.7655 19.545 89.9024 19.9557 89.9307V90.4777H15.9311V89.9307C16.2899 89.9095 16.5603 89.8024 16.7423 89.6095C16.9243 89.4165 17.015 88.9939 17.0143 88.3417V77.8093H16.9259L13.9536 90.4781H13.6285L10.6268 78.0615H10.5731V87.8049C10.5731 88.5242 10.6482 89.0493 10.7983 89.3805C10.9484 89.7116 11.28 89.895 11.793 89.9307V90.4777H8.95703V89.9307Z" fill="black"/>
<path d="M20.6855 89.9307C21.0286 89.9166 21.2751 89.8428 21.4252 89.7095C21.67 89.484 21.7924 89.0526 21.7924 88.4151V77.9784C21.7924 77.3439 21.676 76.9189 21.4431 76.7034C21.3011 76.571 21.0485 76.4905 20.6855 76.4618V75.9149H24.9241V76.4618C24.5453 76.4898 24.2849 76.5665 24.1429 76.6918C23.9061 76.9076 23.7878 77.3361 23.7878 77.9774V88.4132C23.7878 89.0168 23.8825 89.4194 24.0719 89.621C24.2612 89.8227 24.5453 89.9245 24.9241 89.9264V90.4733H20.6855V89.9307Z" fill="black"/>
<path d="M25.7656 89.9307C26.0948 89.9095 26.329 89.8323 26.4681 89.6993C26.7019 89.4738 26.819 89.0458 26.8193 88.4151V77.9784C26.8193 77.358 26.7121 76.9393 26.4976 76.7222C26.3665 76.5898 26.1225 76.5027 25.7656 76.4608V75.9139H29.8679V76.4608C29.4492 76.5253 29.1671 76.6649 29.0215 76.8797C28.8759 77.0946 28.803 77.6109 28.8026 78.4287V83.0513L31.4116 78.3543C31.5423 78.1322 31.6599 77.9026 31.7638 77.6668C31.8208 77.5067 31.8479 77.3375 31.8435 77.1677C31.8435 76.8945 31.7734 76.7197 31.6333 76.643C31.4932 76.5663 31.2227 76.5068 30.8217 76.4642V75.9173H34.3321V76.4642C33.7044 76.5557 33.1844 76.8715 32.7721 77.4117C32.3598 77.9518 31.5791 79.2664 30.4298 81.3555L34.1297 89.492C34.2089 89.6669 34.287 89.7773 34.364 89.823C34.4764 89.8798 34.5976 89.917 34.7225 89.9331V90.4801H30.6555V89.9331C31.0226 89.9257 31.2732 89.8976 31.4072 89.8486C31.5412 89.7996 31.6084 89.6769 31.6087 89.4804C31.6036 89.3606 31.5817 89.242 31.5435 89.1282C31.4785 88.929 31.4014 88.7339 31.3125 88.5441L29.1099 83.6499L28.8026 84.1983V88.4142C28.8026 89.0387 28.9197 89.4632 29.1539 89.6877C29.2888 89.8211 29.523 89.9016 29.8564 89.9293V90.4762H25.7656V89.9307Z" fill="black"/>
<path d="M42.8977 77.6934C43.7303 79.1312 44.1466 80.9833 44.1466 83.2495C44.1466 85.5157 43.7303 87.3678 42.8977 88.8056C42.0848 90.2086 41.0684 90.9101 39.8487 90.9101C38.5545 90.9101 37.4987 90.1421 36.6812 88.6061C35.9198 87.1608 35.5391 85.414 35.5391 83.3655C35.5391 81.107 35.9377 79.2515 36.7348 77.7992C37.5401 76.326 38.578 75.5895 39.8487 75.5898C41.072 75.5892 42.0883 76.2904 42.8977 77.6934ZM41.7194 87.3108C41.901 86.2727 41.9918 84.9187 41.9918 83.249C41.9918 80.9551 41.7986 79.2259 41.4121 78.0616C41.0256 76.8972 40.5028 76.3149 39.8438 76.3146C38.9268 76.3146 38.2987 77.2861 37.9596 79.2293C37.7818 80.26 37.6929 81.5999 37.6929 83.249C37.6929 84.9239 37.7837 86.2778 37.9654 87.3108C38.3016 89.2253 38.9281 90.1827 39.8448 90.183C40.7557 90.183 41.3805 89.2256 41.7194 87.3108Z" fill="black"/>
<path d="M45 89.9307C45.4619 89.9233 45.7619 89.7784 45.9001 89.4959C46.0383 89.2134 46.1074 88.7873 46.1074 88.2175V77.9784C46.1074 77.3928 46.0283 77.0079 45.8701 76.8237C45.712 76.6395 45.4318 76.5192 45.0295 76.4628V75.9159H48.0844L50.4701 85.8908H50.5711L52.9433 75.9159H56.0001V76.4628C55.5894 76.5188 55.309 76.6532 55.1589 76.8657C55.0088 77.0783 54.934 77.5999 54.9343 78.4306V87.9639C54.9343 88.7566 55.0092 89.2756 55.1589 89.521C55.3087 89.7665 55.5891 89.9034 56.0001 89.9317V90.4786H51.9741V89.9317C52.3332 89.9105 52.6036 89.8034 52.7853 89.6104C52.9669 89.4175 53.0576 88.9949 53.0573 88.3427V77.8103H52.9689L49.9966 90.4791H49.6715L46.6697 78.0625H46.6161V87.8059C46.6161 88.5251 46.6911 89.0503 46.8412 89.3814C46.9913 89.7125 47.3229 89.896 47.836 89.9317V90.4786H45V89.9307Z" fill="black"/>
<path d="M7.62804 92.9111V93.201C7.4074 93.2232 7.26568 93.253 7.20288 93.2904C7.14055 93.3276 7.10915 93.4064 7.10915 93.5257C7.10965 93.583 7.11547 93.64 7.12654 93.6962C7.13749 93.7581 7.16406 93.8692 7.20626 94.0296L8.05223 96.7835H8.06044L8.74553 94.7698C8.78934 94.6464 8.83524 94.4953 8.88323 94.3166C8.95634 94.0441 8.99274 93.8425 8.99242 93.7117C8.99242 93.5102 8.94797 93.3735 8.8581 93.3088C8.79787 93.264 8.66453 93.2286 8.45807 93.2025V92.9126H9.86496V93.2025C9.77793 93.2284 9.69557 93.2681 9.62098 93.3199C9.53177 93.4113 9.46554 93.5225 9.42772 93.6445L8.20539 97.2111V99.3219C8.20539 99.7586 8.24677 100.04 8.32955 100.164C8.41233 100.289 8.5679 100.358 8.79626 100.369V100.659H6.57383V100.369C6.81153 100.358 6.96936 100.285 7.04731 100.15C7.12525 100.016 7.16439 99.7396 7.16471 99.3219V97.6367L5.99551 93.8296C5.91821 93.5793 5.82336 93.4038 5.71095 93.303C5.64817 93.2448 5.5677 93.2094 5.48242 93.2025V92.9126L7.62804 92.9111Z" fill="black"/>
<path d="M14.109 93.8577C14.5487 94.6223 14.7687 95.6076 14.769 96.8135C14.7693 98.0194 14.5493 99.0042 14.109 99.7679C13.6797 100.514 13.1429 100.887 12.4987 100.887C11.8152 100.887 11.2577 100.479 10.8261 99.6616C10.4235 98.8925 10.2223 97.9631 10.2227 96.8734C10.2227 95.6714 10.4331 94.684 10.8541 93.9113C11.2793 93.1277 11.8268 92.7358 12.4968 92.7358C13.1455 92.7371 13.6829 93.1111 14.109 93.8577ZM13.4867 98.9746C13.5834 98.4225 13.6317 97.7022 13.6317 96.8135C13.6317 95.5931 13.5299 94.6731 13.3263 94.0534C13.1228 93.4337 12.8467 93.1238 12.4982 93.1238C12.0151 93.1238 11.6832 93.6408 11.5025 94.6747C11.4088 95.2222 11.3619 95.9352 11.3619 96.8135C11.3619 97.7057 11.4102 98.4261 11.5068 98.9746C11.6843 99.9937 12.0151 100.503 12.4992 100.503C12.9833 100.503 13.313 99.9937 13.4882 98.9746H13.4867Z" fill="black"/>
<path d="M15.847 93.9702C16.2728 93.1676 16.8158 92.7664 17.4761 92.7667C17.7409 92.7667 18.0047 92.8553 18.2675 93.0324C18.5303 93.2096 18.6939 93.2983 18.7584 93.2987C18.827 93.2987 18.8822 93.2557 18.9241 93.1697C18.9765 93.0445 19.0111 92.9126 19.027 92.7778H19.2053V95.4597H19.0424C18.8885 94.8777 18.7311 94.4186 18.5704 94.0823C18.2706 93.4629 17.9309 93.1531 17.5515 93.1528C17.1386 93.1528 16.8372 93.4739 16.6475 94.1161C16.4578 94.7584 16.363 95.6615 16.363 96.8256C16.363 97.7812 16.4511 98.6331 16.6272 99.3814C16.8034 100.13 17.1437 100.504 17.6481 100.504C17.9209 100.504 18.1044 100.401 18.1984 100.196C18.2525 100.08 18.2796 99.9049 18.2796 99.6698V98.462C18.2796 98.1151 18.2203 97.8873 18.1018 97.7788C18.0245 97.7118 17.8681 97.6746 17.6326 97.6672V97.3773H19.828V97.6672C19.6072 97.6822 19.4604 97.7638 19.3889 97.9049C19.3174 98.046 19.2806 98.3185 19.2806 98.7141V100.175C19.1389 100.332 18.9097 100.489 18.5931 100.646C18.2619 100.805 17.898 100.886 17.5302 100.881C16.8197 100.881 16.2517 100.479 15.8262 99.677C15.43 98.9266 15.2321 97.9859 15.2324 96.855C15.2321 95.7113 15.437 94.7497 15.847 93.9702Z" fill="black"/>
<path d="M22.2135 92.9113V93.2011C21.9922 93.2234 21.8505 93.2532 21.7883 93.2905C21.7255 93.3277 21.6917 93.4065 21.6917 93.5258C21.6922 93.5831 21.698 93.6402 21.7091 93.6964C21.7207 93.7582 21.7473 93.8693 21.7888 94.0297L22.6348 96.7836H22.643L23.3354 94.7699C23.3788 94.6465 23.4246 94.4955 23.4726 94.3167C23.5454 94.0442 23.5819 93.8426 23.5822 93.7118C23.5822 93.5102 23.5375 93.3759 23.4479 93.3089C23.3871 93.2641 23.2535 93.2287 23.0474 93.2026V92.9127H24.4548V93.2026C24.3677 93.2284 24.2853 93.2681 24.2108 93.32C24.1214 93.4113 24.0552 93.5226 24.0175 93.6447L22.7952 97.2112V99.322C22.7952 99.7588 22.8368 100.04 22.9199 100.165C23.003 100.29 23.1584 100.358 23.3861 100.369V100.659H21.1612V100.369C21.3989 100.358 21.5569 100.285 21.6352 100.151C21.7135 100.016 21.7524 99.7398 21.7521 99.322V97.6368L20.5829 93.8297C20.5056 93.5794 20.4108 93.4039 20.2984 93.3031C20.2357 93.245 20.1554 93.2096 20.0703 93.2026V92.9127L22.2135 92.9113Z" fill="black"/>
<path d="M24.1289 100.369C24.2832 100.35 24.4072 100.225 24.5009 99.9935C24.5615 99.8479 24.648 99.5269 24.7604 99.0306L26.1847 92.7546H26.3629L27.7916 98.7789C27.9526 99.4553 28.0726 99.8911 28.1515 100.086C28.2303 100.28 28.3448 100.376 28.4897 100.369V100.659H26.4146V100.369C26.623 100.354 26.7601 100.322 26.8258 100.272C26.8915 100.223 26.9237 100.099 26.9224 99.9027C26.9174 99.7653 26.9013 99.6286 26.8741 99.4939C26.8535 99.3857 26.8253 99.2551 26.7895 99.1021L26.6267 98.4078H25.1889C25.0952 98.8629 25.0348 99.1596 25.0077 99.2978C24.9615 99.5097 24.9332 99.7251 24.9232 99.9418C24.9232 100.106 24.9847 100.226 25.1077 100.3C25.2104 100.348 25.3227 100.371 25.4358 100.367V100.657H24.1289V100.369ZM26.533 97.9532L25.917 95.2993H25.8629L25.2831 97.9532H26.533Z" fill="black"/>
<path d="M28.7988 100.369C28.9728 100.358 29.0964 100.317 29.1699 100.246C29.2936 100.127 29.3554 99.8988 29.3554 99.5626V94.0065C29.3554 93.677 29.2989 93.4546 29.1858 93.3393C29.1162 93.2692 28.9877 93.2228 28.7993 93.2006V92.9107H30.9662V93.2006C30.7455 93.2328 30.5966 93.3071 30.5193 93.4234C30.442 93.5396 30.4033 93.8144 30.4033 94.2476V96.7053L31.7812 94.206C31.8502 94.0878 31.9123 93.9657 31.9672 93.8403C31.9973 93.755 32.0116 93.665 32.0093 93.5746C32.0093 93.4296 31.9722 93.3366 31.8982 93.2953C31.8242 93.2547 31.6812 93.2229 31.4696 93.1987V92.9088H33.3239V93.1987C32.9925 93.247 32.7177 93.415 32.4997 93.7026C32.2816 93.9902 31.8692 94.6914 31.2623 95.8062L33.2166 100.136C33.2582 100.229 33.2997 100.287 33.3403 100.311C33.3995 100.342 33.4636 100.362 33.5297 100.37V100.66H31.3817V100.37C31.5749 100.367 31.7073 100.352 31.7788 100.325C31.8494 100.299 31.8851 100.234 31.8851 100.129C31.8823 100.066 31.8708 100.002 31.8508 99.9419C31.8162 99.836 31.7754 99.7322 31.7286 99.6312L30.5652 97.0271L30.4028 97.317V99.5621C30.4028 99.8945 30.4647 100.12 30.5884 100.238C30.6599 100.309 30.7836 100.352 30.9594 100.367V100.657H28.7988V100.369Z" fill="black"/>
<path d="M33.7363 100.369C33.8906 100.35 34.0146 100.225 34.1083 99.9935C34.1689 99.8479 34.2554 99.5269 34.3678 99.0306L35.7906 92.7546H35.9689L37.3956 98.7789C37.5567 99.4553 37.6766 99.8911 37.7556 100.086C37.8345 100.281 37.9472 100.376 38.0937 100.369V100.659H36.0221V100.369C36.2301 100.354 36.3672 100.322 36.4332 100.272C36.4992 100.223 36.5314 100.099 36.5298 99.9027C36.5249 99.7653 36.5087 99.6286 36.4815 99.4939C36.4606 99.3857 36.4324 99.2551 36.397 99.1021L36.2361 98.4093H34.7963C34.7026 98.8644 34.6422 99.161 34.6152 99.2992C34.569 99.5111 34.5407 99.7266 34.5306 99.9432C34.5306 100.108 34.5921 100.227 34.7152 100.302C34.8178 100.349 34.9301 100.372 35.0432 100.369V100.659H33.7387L33.7363 100.369ZM36.1404 97.9532L35.5244 95.2993H35.4703L34.8905 97.9532H36.1404Z" fill="black"/>
<path d="M38.3477 100.369C38.5641 100.35 38.7121 100.278 38.7917 100.151C38.8712 100.024 38.9108 99.7475 38.9105 99.322V94.2491C38.9105 93.8072 38.8635 93.5194 38.7694 93.3857C38.707 93.2968 38.5664 93.2356 38.3477 93.2021V92.9122H40.4082C40.8353 92.9122 41.1813 92.9928 41.446 93.1538C41.9591 93.4791 42.2155 94.0634 42.2152 94.9066C42.2152 95.5299 42.081 96.0206 41.8127 96.3787C41.6075 96.648 41.3903 96.8197 41.161 96.8938L42.5215 100.154C42.5422 100.222 42.5812 100.283 42.6341 100.331C42.6773 100.36 42.727 100.378 42.779 100.384V100.658H41.4451L39.9512 97.0754H39.9483V99.3206C39.9483 99.7235 39.9858 99.995 40.0609 100.135C40.1359 100.275 40.286 100.353 40.5111 100.368V100.657H38.3477V100.369ZM40.8474 96.3908C41.0278 96.1914 41.118 95.7296 41.118 95.0052C41.118 94.561 41.0835 94.2103 41.0146 93.9529C40.8957 93.5162 40.679 93.2978 40.3643 93.2978C40.1932 93.2978 40.0805 93.3359 40.0261 93.4123C39.9729 93.4891 39.9464 93.6147 39.9464 93.7901V96.7073C40.367 96.6963 40.6674 96.5908 40.8474 96.3908Z" fill="black"/>
<path d="M42.8149 92.9111H46.6703L46.6766 95.2234H46.4925C46.4316 94.3963 46.2585 93.8367 45.9731 93.5445C45.8121 93.3835 45.5725 93.2956 45.2542 93.2807V99.32C45.2542 99.7422 45.2953 100.022 45.3774 100.161C45.4596 100.299 45.6311 100.368 45.892 100.368V100.658H43.6092V100.368C43.8588 100.368 44.025 100.298 44.1078 100.158C44.1905 100.018 44.2316 99.7384 44.231 99.32V93.2807C43.9182 93.2956 43.6786 93.3835 43.512 93.5445C43.2057 93.8441 43.0328 94.4037 42.9932 95.2234H42.8086L42.8149 92.9111Z" fill="black"/>
<path d="M46.5605 100.369C46.7145 100.35 46.8385 100.225 46.9326 99.9935C46.9931 99.8479 47.0796 99.5269 47.192 99.0306L48.6148 92.7546H48.7931L50.2218 98.7789C50.3828 99.4553 50.5028 99.8911 50.5817 100.086C50.6606 100.281 50.7733 100.376 50.9199 100.369V100.659H48.8443V100.369C49.0527 100.354 49.1898 100.322 49.2555 100.272C49.3212 100.223 49.3534 100.099 49.3521 99.9027C49.3472 99.7653 49.331 99.6286 49.3038 99.4939C49.283 99.3857 49.2555 99.2553 49.2193 99.1021L49.0564 98.4078H47.6206C47.5268 98.8629 47.4663 99.1596 47.4389 99.2978C47.393 99.5097 47.3649 99.7252 47.3548 99.9418C47.3548 100.106 47.4163 100.226 47.5394 100.3C47.642 100.348 47.7543 100.371 47.8674 100.367V100.657H46.563L46.5605 100.369ZM48.9642 97.9532L48.3486 95.2993H48.2945L47.7148 97.9532H48.9642Z" fill="black"/>
</g>
<path d="M120.135 8.94531C120.85 8.93359 121.326 8.85156 121.564 8.69922C121.943 8.45703 122.133 7.93555 122.133 7.13477C122.133 6.58789 122.041 6.14648 121.857 5.81055C121.674 5.47461 121.322 5.30664 120.803 5.30664C120.564 5.30664 120.393 5.33594 120.287 5.39453C120.186 5.44922 120.135 5.55859 120.135 5.72266V8.94531ZM117.193 12.6953C117.588 12.668 117.852 12.5859 117.984 12.4492C118.121 12.3086 118.189 12.0254 118.189 11.5996V6.29688C118.189 5.84375 118.121 5.55859 117.984 5.44141C117.848 5.32031 117.584 5.23828 117.193 5.19531V4.89062H121.055C122.078 4.89062 122.855 5.05664 123.387 5.38867C123.922 5.7207 124.189 6.29102 124.189 7.09961C124.189 7.49414 124.084 7.86523 123.873 8.21289C123.666 8.55664 123.322 8.83398 122.842 9.04492C122.479 9.19336 122.115 9.2832 121.752 9.31445C121.389 9.3457 120.85 9.36133 120.135 9.36133V11.5996C120.135 12.041 120.209 12.3301 120.357 12.4668C120.506 12.6035 120.783 12.6797 121.189 12.6953V13H117.193V12.6953Z" fill="black"/>
<path d="M125.129 12.6953C125.536 12.6758 125.813 12.5996 125.961 12.4668C126.11 12.334 126.184 12.0449 126.184 11.5996V6.29688C126.184 5.83203 126.096 5.5293 125.92 5.38867C125.803 5.29492 125.539 5.23047 125.129 5.19531V4.89062H128.991C129.791 4.89062 130.44 4.97461 130.936 5.14258C131.897 5.48242 132.377 6.09375 132.377 6.97656C132.377 7.62891 132.137 8.14258 131.657 8.51758C131.289 8.79883 130.901 8.97852 130.491 9.05664L132.905 12.4727C132.971 12.5664 133.041 12.6289 133.116 12.6602C133.19 12.6875 133.282 12.7051 133.391 12.7129V13H130.936L128.446 9.25H128.129V11.5996C128.129 12.0215 128.2 12.3066 128.34 12.4551C128.481 12.5996 128.762 12.6797 129.184 12.6953V13H125.129V12.6953ZM128.129 8.86328C128.914 8.85156 129.475 8.74219 129.811 8.53516C130.151 8.32422 130.321 7.83984 130.321 7.08203C130.321 6.61719 130.256 6.25 130.127 5.98047C129.905 5.52344 129.498 5.29492 128.909 5.29492C128.588 5.29492 128.377 5.33594 128.276 5.41797C128.178 5.49609 128.129 5.62695 128.129 5.81055V8.86328Z" fill="black"/>
<path d="M138.86 12.8359C139.759 12.8359 140.376 12.3027 140.712 11.2363C140.891 10.6582 140.981 9.9043 140.981 8.97461C140.981 7.69727 140.79 6.73438 140.407 6.08594C140.028 5.4375 139.513 5.11328 138.86 5.11328C137.954 5.11328 137.333 5.6543 136.997 6.73633C136.821 7.31055 136.733 8.05664 136.733 8.97461C136.733 9.9082 136.823 10.6621 137.003 11.2363C137.335 12.3027 137.954 12.8359 138.86 12.8359ZM138.86 4.70898C140.071 4.70898 141.077 5.09961 141.878 5.88086C142.702 6.68164 143.114 7.71289 143.114 8.97461C143.114 10.2363 142.702 11.2676 141.878 12.0684C141.073 12.8496 140.067 13.2402 138.86 13.2402C137.579 13.2402 136.534 12.8125 135.725 11.957C134.971 11.1523 134.595 10.1797 134.595 9.03906C134.595 7.78125 134.989 6.74805 135.778 5.93945C136.575 5.11914 137.602 4.70898 138.86 4.70898Z" fill="black"/>
<path d="M144.312 12.6953C144.612 12.6758 144.829 12.6328 144.962 12.5664C145.196 12.4453 145.314 12.2246 145.314 11.9043V5.98633C145.314 5.67773 145.202 5.46289 144.98 5.3418C144.851 5.27148 144.628 5.22266 144.312 5.19531V4.89062H147.98C149.46 4.89062 150.589 5.28516 151.366 6.07422C152.073 6.79297 152.427 7.75781 152.427 8.96875C152.427 10.0547 152.071 10.9746 151.361 11.7285C150.56 12.5762 149.474 13 148.103 13H144.312V12.6953ZM147.253 11.8926C147.265 12.1387 147.31 12.3164 147.388 12.4258C147.47 12.5352 147.642 12.5898 147.904 12.5898C148.614 12.5898 149.198 12.3398 149.655 11.8398C150.112 11.3359 150.341 10.3711 150.341 8.94531C150.341 8.09766 150.218 7.36914 149.972 6.75977C149.573 5.7793 148.902 5.28906 147.956 5.28906C147.644 5.28906 147.441 5.35547 147.347 5.48828C147.284 5.57422 147.253 5.74023 147.253 5.98633V11.8926Z" fill="black"/>
<path d="M153.613 12.6953C153.953 12.6875 154.197 12.6465 154.345 12.5723C154.588 12.4473 154.709 12.207 154.709 11.8516V6.04492C154.709 5.68945 154.593 5.45117 154.363 5.33008C154.222 5.25586 153.972 5.21094 153.613 5.19531V4.89062H157.808V5.19531C157.433 5.21094 157.175 5.25391 157.035 5.32422C156.8 5.44531 156.683 5.68555 156.683 6.04492V11.8516C156.683 12.1875 156.777 12.4121 156.964 12.5254C157.152 12.6387 157.433 12.6953 157.808 12.6953V13H153.613V12.6953Z" fill="black"/>
<path d="M162.459 12.6953C162.76 12.6758 162.977 12.6328 163.11 12.5664C163.344 12.4453 163.461 12.2246 163.461 11.9043V5.98633C163.461 5.67773 163.35 5.46289 163.127 5.3418C162.998 5.27148 162.776 5.22266 162.459 5.19531V4.89062H166.127C167.608 4.89062 168.737 5.28516 169.514 6.07422C170.221 6.79297 170.575 7.75781 170.575 8.96875C170.575 10.0547 170.219 10.9746 169.508 11.7285C168.707 12.5762 167.621 13 166.25 13H162.459V12.6953ZM165.401 11.8926C165.412 12.1387 165.457 12.3164 165.536 12.4258C165.618 12.5352 165.789 12.5898 166.051 12.5898C166.762 12.5898 167.346 12.3398 167.803 11.8398C168.26 11.3359 168.489 10.3711 168.489 8.94531C168.489 8.09766 168.366 7.36914 168.12 6.75977C167.721 5.7793 167.049 5.28906 166.104 5.28906C165.791 5.28906 165.588 5.35547 165.495 5.48828C165.432 5.57422 165.401 5.74023 165.401 5.98633V11.8926Z" fill="black"/>
<path d="M171.761 12.6953C172.1 12.6875 172.345 12.6465 172.493 12.5723C172.735 12.4473 172.856 12.207 172.856 11.8516V6.04492C172.856 5.68945 172.741 5.45117 172.511 5.33008C172.37 5.25586 172.12 5.21094 171.761 5.19531V4.89062H175.956V5.19531C175.581 5.21094 175.323 5.25391 175.182 5.32422C174.948 5.44531 174.831 5.68555 174.831 6.04492V11.8516C174.831 12.1875 174.925 12.4121 175.112 12.5254C175.3 12.6387 175.581 12.6953 175.956 12.6953V13H171.761V12.6953Z" fill="black"/>
<path d="M179.978 8.94531C180.693 8.93359 181.169 8.85156 181.407 8.69922C181.786 8.45703 181.976 7.93555 181.976 7.13477C181.976 6.58789 181.884 6.14648 181.7 5.81055C181.517 5.47461 181.165 5.30664 180.646 5.30664C180.407 5.30664 180.236 5.33594 180.13 5.39453C180.029 5.44922 179.978 5.55859 179.978 5.72266V8.94531ZM177.036 12.6953C177.431 12.668 177.695 12.5859 177.827 12.4492C177.964 12.3086 178.032 12.0254 178.032 11.5996V6.29688C178.032 5.84375 177.964 5.55859 177.827 5.44141C177.691 5.32031 177.427 5.23828 177.036 5.19531V4.89062H180.898C181.921 4.89062 182.698 5.05664 183.23 5.38867C183.765 5.7207 184.032 6.29102 184.032 7.09961C184.032 7.49414 183.927 7.86523 183.716 8.21289C183.509 8.55664 183.165 8.83398 182.685 9.04492C182.321 9.19336 181.958 9.2832 181.595 9.31445C181.232 9.3457 180.693 9.36133 179.978 9.36133V11.5996C179.978 12.041 180.052 12.3301 180.2 12.4668C180.349 12.6035 180.626 12.6797 181.032 12.6953V13H177.036V12.6953Z" fill="black"/>
<path d="M184.996 12.6953C185.324 12.6836 185.558 12.6406 185.699 12.5664C185.937 12.4414 186.056 12.2031 186.056 11.8516V6.04492C186.056 5.69336 185.943 5.45703 185.716 5.33594C185.584 5.26172 185.343 5.21484 184.996 5.19531V4.89062H189.191V5.19531C188.703 5.21094 188.377 5.2793 188.213 5.40039C188.052 5.52148 187.972 5.82031 187.972 6.29688V11.9629C187.972 12.2285 188.041 12.4043 188.177 12.4902C188.318 12.5762 188.589 12.6191 188.992 12.6191C189.714 12.6191 190.32 12.4609 190.808 12.1445C191.3 11.8242 191.724 11.2031 192.08 10.2812H192.431L191.945 13H184.996V12.6953Z" fill="black"/>
<path d="M198.035 12.8359C198.934 12.8359 199.551 12.3027 199.887 11.2363C200.066 10.6582 200.156 9.9043 200.156 8.97461C200.156 7.69727 199.965 6.73438 199.582 6.08594C199.203 5.4375 198.688 5.11328 198.035 5.11328C197.129 5.11328 196.508 5.6543 196.172 6.73633C195.996 7.31055 195.908 8.05664 195.908 8.97461C195.908 9.9082 195.998 10.6621 196.178 11.2363C196.51 12.3027 197.129 12.8359 198.035 12.8359ZM198.035 4.70898C199.246 4.70898 200.252 5.09961 201.053 5.88086C201.877 6.68164 202.289 7.71289 202.289 8.97461C202.289 10.2363 201.877 11.2676 201.053 12.0684C200.248 12.8496 199.242 13.2402 198.035 13.2402C196.754 13.2402 195.709 12.8125 194.9 11.957C194.146 11.1523 193.77 10.1797 193.77 9.03906C193.77 7.78125 194.164 6.74805 194.953 5.93945C195.75 5.11914 196.777 4.70898 198.035 4.70898Z" fill="black"/>
<path d="M203.487 12.6953C203.944 12.6914 204.241 12.6113 204.377 12.4551C204.514 12.2949 204.582 12.0566 204.582 11.7402V6.04492C204.582 5.7168 204.504 5.50195 204.348 5.40039C204.192 5.29492 203.914 5.22656 203.516 5.19531V4.89062H206.539L208.901 10.4453H209L211.35 4.89062H214.373V5.19531C213.967 5.22656 213.69 5.30273 213.541 5.42383C213.393 5.54102 213.319 5.83203 213.319 6.29688V11.5996C213.319 12.041 213.393 12.3301 213.541 12.4668C213.69 12.6035 213.967 12.6797 214.373 12.6953V13H210.389V12.6953C210.745 12.6836 211.012 12.625 211.192 12.5195C211.371 12.4102 211.461 12.1738 211.461 11.8105V5.94531H211.373L208.432 13H208.11L205.139 6.08594H205.086V11.5176C205.086 11.916 205.161 12.207 205.309 12.3906C205.457 12.5742 205.786 12.6758 206.293 12.6953V13H203.487V12.6953Z" fill="black"/>
<path d="M219.971 10.1699L218.823 7.39258H218.723L217.639 10.1699H219.971ZM215.471 12.6953C215.761 12.6758 215.993 12.5449 216.169 12.3027C216.282 12.1504 216.444 11.8145 216.655 11.2949L219.321 4.72656H219.655L222.333 11.0312C222.634 11.7383 222.858 12.1953 223.007 12.4023C223.155 12.6055 223.366 12.7031 223.639 12.6953V13H219.755V12.6953C220.145 12.6797 220.401 12.6465 220.522 12.5957C220.647 12.5449 220.71 12.416 220.71 12.209C220.71 12.1152 220.679 11.9727 220.616 11.7812C220.577 11.668 220.524 11.5312 220.458 11.3711L220.153 10.6445H217.458C217.282 11.1211 217.169 11.4316 217.118 11.5762C217.012 11.8848 216.96 12.1094 216.96 12.25C216.96 12.4219 217.075 12.5469 217.305 12.625C217.442 12.668 217.647 12.6914 217.921 12.6953V13H215.471V12.6953Z" fill="black"/>
<path d="M117.301 40.4414C117.852 40.4056 118.25 40.3268 118.493 40.2051C118.923 39.9831 119.138 39.5785 119.138 38.9912V28.1416C119.138 27.5758 118.934 27.182 118.525 26.96C118.289 26.8311 117.881 26.7415 117.301 26.6914V26.1328H124.025C126.74 26.1328 128.809 26.8561 130.234 28.3027C131.531 29.6204 132.179 31.3893 132.179 33.6094C132.179 35.6003 131.527 37.2868 130.224 38.6689C128.756 40.223 126.765 41 124.251 41H117.301V40.4414ZM122.693 38.9697C122.715 39.4209 122.797 39.7467 122.94 39.9473C123.091 40.1478 123.406 40.248 123.886 40.248C125.189 40.248 126.26 39.7897 127.098 38.873C127.936 37.9492 128.354 36.1803 128.354 33.5664C128.354 32.0124 128.129 30.6768 127.678 29.5596C126.947 27.762 125.715 26.8633 123.982 26.8633C123.41 26.8633 123.037 26.985 122.865 27.2285C122.751 27.3861 122.693 27.6904 122.693 28.1416V38.9697Z" fill="black"/>
<path d="M133.865 34.6943H139.204V37.2402H133.865V34.6943Z" fill="black"/>
<path d="M140.579 40.4414C141.202 40.4271 141.65 40.3519 141.922 40.2158C142.366 39.9867 142.588 39.5462 142.588 38.8945V28.249C142.588 27.5973 142.377 27.1605 141.954 26.9385C141.696 26.8024 141.238 26.7201 140.579 26.6914V26.1328H148.271V26.6914C147.583 26.7201 147.11 26.7988 146.853 26.9277C146.423 27.1497 146.208 27.5902 146.208 28.249V38.8945C146.208 39.5104 146.38 39.9222 146.724 40.1299C147.067 40.3376 147.583 40.4414 148.271 40.4414V41H140.579V40.4414Z" fill="black"/>
<path d="M149.151 40.4414C149.774 40.4271 150.222 40.3519 150.494 40.2158C150.938 39.9867 151.16 39.5462 151.16 38.8945V28.249C151.16 27.5973 150.949 27.1605 150.526 26.9385C150.269 26.8024 149.81 26.7201 149.151 26.6914V26.1328H156.843V26.6914C156.155 26.7201 155.683 26.7988 155.425 26.9277C154.995 27.1497 154.78 27.5902 154.78 28.249V38.8945C154.78 39.5104 154.952 39.9222 155.296 40.1299C155.64 40.3376 156.155 40.4414 156.843 40.4414V41H149.151V40.4414Z" fill="black"/>
<path d="M157.724 40.4414C158.347 40.4271 158.794 40.3519 159.066 40.2158C159.51 39.9867 159.732 39.5462 159.732 38.8945V28.249C159.732 27.5973 159.521 27.1605 159.099 26.9385C158.841 26.8024 158.382 26.7201 157.724 26.6914V26.1328H165.415V26.6914C164.728 26.7201 164.255 26.7988 163.997 26.9277C163.567 27.1497 163.353 27.5902 163.353 28.249V38.8945C163.353 39.5104 163.524 39.9222 163.868 40.1299C164.212 40.3376 164.728 40.4414 165.415 40.4414V41H157.724V40.4414Z" fill="black"/>
<path d="M117.58 52.1328H130.825L130.847 56.5693H130.213C130.005 54.9867 129.411 53.916 128.43 53.3574C127.878 53.0495 127.055 52.8812 125.959 52.8525V64.4326C125.959 65.2419 126.099 65.779 126.378 66.0439C126.664 66.3089 127.255 66.4414 128.15 66.4414V67H120.309V66.4414C121.168 66.4414 121.737 66.3089 122.017 66.0439C122.303 65.7718 122.446 65.2347 122.446 64.4326V52.8525C121.372 52.8812 120.549 53.0495 119.976 53.3574C118.923 53.9303 118.328 55.001 118.192 56.5693H117.559L117.58 52.1328Z" fill="black"/>
<path d="M132.028 67V66.4414C132.659 66.4199 133.106 66.334 133.371 66.1836C133.779 65.9544 133.983 65.5247 133.983 64.8945V54.249C133.983 53.6045 133.772 53.1712 133.35 52.9492C133.106 52.8132 132.666 52.7272 132.028 52.6914V52.1328H144.704V56.5693H144.167C143.888 55.1514 143.411 54.181 142.738 53.6582C142.072 53.1354 140.855 52.874 139.086 52.874C138.413 52.874 137.983 52.9456 137.797 53.0889C137.618 53.2249 137.528 53.5007 137.528 53.916V59.0078C138.782 59.0221 139.63 58.7965 140.074 58.3311C140.518 57.8584 140.858 56.999 141.095 55.7529H141.653V63.1865H141.095C140.937 61.9333 140.615 61.0524 140.128 60.5439C139.648 60.0283 138.782 59.7705 137.528 59.7705V65.0986C137.528 65.5641 137.646 65.8828 137.883 66.0547C138.126 66.2194 138.62 66.3018 139.365 66.3018C140.769 66.3018 141.915 66.0296 142.803 65.4854C143.691 64.9411 144.479 63.9206 145.166 62.4238H145.778L144.887 67H132.028Z" fill="black"/>
<path d="M146.906 66.4414C147.501 66.4199 147.923 66.3411 148.174 66.2051C148.596 65.9759 148.808 65.5391 148.808 64.8945V54.249C148.808 53.6117 148.614 53.182 148.228 52.96C147.991 52.8239 147.551 52.7344 146.906 52.6914V52.1328H154.34V52.6914C153.581 52.7559 153.069 52.8991 152.804 53.1211C152.539 53.3431 152.406 53.873 152.406 54.7109V59.416L157.144 54.625C157.473 54.2956 157.684 54.0628 157.777 53.9268C157.878 53.7835 157.928 53.6117 157.928 53.4111C157.928 53.1318 157.799 52.9528 157.541 52.874C157.29 52.7952 156.8 52.7344 156.069 52.6914V52.1328H162.439V52.6914C161.301 52.7845 160.355 53.1068 159.604 53.6582C158.859 54.2096 157.444 55.5524 155.36 57.6865L162.074 65.9902C162.217 66.1693 162.357 66.2839 162.493 66.334C162.636 66.377 162.855 66.4128 163.148 66.4414V67H155.769V66.4414C156.435 66.4342 156.889 66.4056 157.133 66.3555C157.376 66.3053 157.498 66.18 157.498 65.9795C157.498 65.8864 157.459 65.7682 157.38 65.625C157.301 65.4746 157.161 65.2741 156.961 65.0234L152.965 60.0283L152.406 60.5869V64.8945C152.406 65.5319 152.618 65.9652 153.04 66.1943C153.284 66.3304 153.706 66.4128 154.308 66.4414V67H146.906V66.4414Z" fill="black"/>
<path d="M163.825 66.4414C164.642 66.4199 165.168 66.266 165.404 65.9795C165.641 65.6859 165.759 65.2562 165.759 64.6904V54.2705C165.086 53.5186 164.67 53.0781 164.513 52.9492C164.355 52.8132 164.14 52.7272 163.868 52.6914V52.1328H168.53L176.093 61.4033H176.2V54.8613C176.2 54.1165 176.064 53.5866 175.792 53.2715C175.52 52.9492 174.976 52.7559 174.159 52.6914V52.1328H178.896V52.6914C178.209 52.806 177.747 52.96 177.511 53.1533C177.282 53.3467 177.167 53.7799 177.167 54.4531V67.4082H176.555L166.876 55.6455H166.726V64.2822C166.726 64.9554 166.819 65.4316 167.005 65.7109C167.299 66.1621 167.9 66.4056 168.81 66.4414V67H163.825V66.4414Z" fill="black"/>
<path d="M179.724 66.4414C180.347 66.4271 180.794 66.3519 181.066 66.2158C181.51 65.9867 181.732 65.5462 181.732 64.8945V54.249C181.732 53.5973 181.521 53.1605 181.099 52.9385C180.841 52.8024 180.382 52.7201 179.724 52.6914V52.1328H187.415V52.6914C186.728 52.7201 186.255 52.7988 185.997 52.9277C185.567 53.1497 185.353 53.5902 185.353 54.249V64.8945C185.353 65.5104 185.524 65.9222 185.868 66.1299C186.212 66.3376 186.728 66.4414 187.415 66.4414V67H179.724V66.4414Z" fill="black"/>
<path d="M188.5 66.4414C189.094 66.4199 189.517 66.3411 189.768 66.2051C190.19 65.9759 190.401 65.5391 190.401 64.8945V54.249C190.401 53.6117 190.208 53.182 189.821 52.96C189.585 52.8239 189.145 52.7344 188.5 52.6914V52.1328H195.934V52.6914C195.174 52.7559 194.662 52.8991 194.397 53.1211C194.132 53.3431 194 53.873 194 54.7109V59.416L198.737 54.625C199.067 54.2956 199.278 54.0628 199.371 53.9268C199.471 53.7835 199.521 53.6117 199.521 53.4111C199.521 53.1318 199.393 52.9528 199.135 52.874C198.884 52.7952 198.394 52.7344 197.663 52.6914V52.1328H204.033V52.6914C202.895 52.7845 201.949 53.1068 201.197 53.6582C200.452 54.2096 199.038 55.5524 196.954 57.6865L203.668 65.9902C203.811 66.1693 203.951 66.2839 204.087 66.334C204.23 66.377 204.449 66.4128 204.742 66.4414V67H197.362V66.4414C198.028 66.4342 198.483 66.4056 198.727 66.3555C198.97 66.3053 199.092 66.18 199.092 65.9795C199.092 65.8864 199.052 65.7682 198.974 65.625C198.895 65.4746 198.755 65.2741 198.555 65.0234L194.559 60.0283L194 60.5869V64.8945C194 65.5319 194.211 65.9652 194.634 66.1943C194.877 66.3304 195.3 66.4128 195.901 66.4414V67H188.5V66.4414Z" fill="black"/>
<path d="M117.354 92.4414C117.978 92.4271 118.425 92.3519 118.697 92.2158C119.141 91.9867 119.363 91.5462 119.363 90.8945V80.249C119.363 79.5973 119.152 79.1605 118.729 78.9385C118.472 78.8024 118.013 78.7201 117.354 78.6914V78.1328H125.046V78.6914C124.358 78.7201 123.886 78.7988 123.628 78.9277C123.198 79.1497 122.983 79.5902 122.983 80.249V90.8945C122.983 91.5104 123.155 91.9222 123.499 92.1299C123.843 92.3376 124.358 92.4414 125.046 92.4414V93H117.354V92.4414Z" fill="black"/>
<path d="M125.927 92.4414C126.743 92.4199 127.27 92.266 127.506 91.9795C127.742 91.6859 127.86 91.2562 127.86 90.6904V80.2705C127.187 79.5186 126.772 79.0781 126.614 78.9492C126.457 78.8132 126.242 78.7272 125.97 78.6914V78.1328H130.632L138.194 87.4033H138.302V80.8613C138.302 80.1165 138.166 79.5866 137.894 79.2715C137.621 78.9492 137.077 78.7559 136.261 78.6914V78.1328H140.998V78.6914C140.311 78.806 139.849 78.96 139.612 79.1533C139.383 79.3467 139.269 79.7799 139.269 80.4531V93.4082H138.656L128.978 81.6455H128.827V90.2822C128.827 90.9554 128.92 91.4316 129.106 91.7109C129.4 92.1621 130.002 92.4056 130.911 92.4414V93H125.927V92.4414Z" fill="black"/>
<path d="M141.825 92.4414C142.455 92.4199 142.903 92.334 143.168 92.1836C143.576 91.9544 143.78 91.5247 143.78 90.8945V80.249C143.78 79.6117 143.58 79.182 143.179 78.96C142.935 78.8239 142.484 78.7344 141.825 78.6914V78.1328H154.297V82.5693H153.76C153.488 81.2015 153.029 80.2454 152.385 79.7012C151.74 79.1497 150.551 78.874 148.818 78.874C148.174 78.874 147.762 78.9492 147.583 79.0996C147.411 79.2428 147.325 79.515 147.325 79.916V85.0078C148.514 85.0293 149.316 84.7786 149.731 84.2559C150.154 83.7331 150.473 82.8988 150.688 81.7529H151.246V89.1865H150.688C150.537 87.9977 150.233 87.1312 149.774 86.5869C149.323 86.0426 148.507 85.7705 147.325 85.7705V90.8945C147.325 91.5749 147.522 92.0081 147.916 92.1943C148.317 92.3734 148.926 92.4557 149.742 92.4414V93H141.825V92.4414Z" fill="black"/>
<path d="M163.449 92.6992C165.096 92.6992 166.228 91.7217 166.844 89.7666C167.173 88.7067 167.338 87.3245 167.338 85.6201C167.338 83.2783 166.987 81.513 166.285 80.3242C165.59 79.1354 164.645 78.541 163.449 78.541C161.788 78.541 160.649 79.5329 160.033 81.5166C159.711 82.5693 159.55 83.9372 159.55 85.6201C159.55 87.3317 159.715 88.7139 160.044 89.7666C160.653 91.7217 161.788 92.6992 163.449 92.6992ZM163.449 77.7998C165.669 77.7998 167.513 78.516 168.981 79.9482C170.493 81.4163 171.248 83.307 171.248 85.6201C171.248 87.9333 170.493 89.8239 168.981 91.292C167.506 92.7243 165.662 93.4404 163.449 93.4404C161.1 93.4404 159.185 92.6562 157.702 91.0879C156.32 89.6126 155.629 87.8294 155.629 85.7383C155.629 83.4323 156.352 81.5381 157.799 80.0557C159.26 78.5518 161.143 77.7998 163.449 77.7998Z" fill="black"/>
<path d="M172.397 92.4414C173.142 92.4056 173.651 92.266 173.923 92.0225C174.195 91.779 174.331 91.249 174.331 90.4326V80.7109C174.331 79.8587 174.17 79.3037 173.848 79.0459C173.633 78.874 173.149 78.7559 172.397 78.6914V78.1328H179.477C180.945 78.1328 182.133 78.2868 183.043 78.5947C184.805 79.2178 185.686 80.3385 185.686 81.957C185.686 83.153 185.245 84.0947 184.364 84.7822C183.691 85.2979 182.979 85.6273 182.227 85.7705L186.652 92.0332C186.774 92.2051 186.903 92.3197 187.039 92.377C187.175 92.4271 187.343 92.4593 187.544 92.4736V93H183.043L178.478 86.125H177.897V90.4326C177.897 91.2061 178.026 91.7288 178.284 92.001C178.542 92.266 179.058 92.4128 179.831 92.4414V93H172.397V92.4414ZM177.897 85.416C179.337 85.3945 180.365 85.194 180.98 84.8145C181.604 84.4277 181.915 83.5397 181.915 82.1504C181.915 81.2982 181.797 80.625 181.561 80.1309C181.152 79.293 180.408 78.874 179.326 78.874C178.739 78.874 178.352 78.9492 178.166 79.0996C177.987 79.2428 177.897 79.4827 177.897 79.8193V85.416Z" fill="black"/>
<path d="M188.242 92.4414C189.08 92.4342 189.624 92.2874 189.875 92.001C190.126 91.7074 190.251 91.2705 190.251 90.6904V80.249C190.251 79.6475 190.108 79.2536 189.821 79.0674C189.535 78.874 189.026 78.7487 188.296 78.6914V78.1328H193.839L198.168 88.3164H198.351L202.658 78.1328H208.201V78.6914C207.456 78.7487 206.948 78.8883 206.676 79.1104C206.404 79.3252 206.268 79.8587 206.268 80.7109V90.4326C206.268 91.2419 206.404 91.7718 206.676 92.0225C206.948 92.2731 207.456 92.4128 208.201 92.4414V93H200.896V92.4414C201.548 92.4199 202.039 92.3125 202.368 92.1191C202.698 91.9186 202.862 91.4854 202.862 90.8193V80.0664H202.701L197.309 93H196.718L191.271 80.3242H191.175V90.2822C191.175 91.0127 191.311 91.5462 191.583 91.8828C191.855 92.2194 192.457 92.4056 193.388 92.4414V93H188.242V92.4414Z" fill="black"/>
<path d="M217.364 87.8115L215.259 82.7197H215.076L213.089 87.8115H217.364ZM209.114 92.4414C209.644 92.4056 210.07 92.1657 210.393 91.7217C210.6 91.4424 210.897 90.8265 211.284 89.874L216.172 77.832H216.784L221.693 89.3906C222.245 90.6868 222.657 91.5247 222.929 91.9043C223.201 92.2767 223.588 92.4557 224.089 92.4414V93H216.967V92.4414C217.683 92.4128 218.152 92.3519 218.374 92.2588C218.603 92.1657 218.718 91.9294 218.718 91.5498C218.718 91.3779 218.66 91.1165 218.546 90.7656C218.474 90.5579 218.378 90.3073 218.256 90.0137L217.697 88.6816H212.756C212.434 89.5553 212.226 90.1247 212.133 90.3896C211.939 90.9554 211.843 91.3672 211.843 91.625C211.843 91.9401 212.054 92.1693 212.477 92.3125C212.727 92.3913 213.103 92.4342 213.604 92.4414V93H209.114V92.4414Z" fill="black"/>
<path d="M223.562 78.1328H236.808L236.829 82.5693H236.195C235.988 80.9867 235.393 79.916 234.412 79.3574C233.861 79.0495 233.037 78.8812 231.941 78.8525V90.4326C231.941 91.2419 232.081 91.779 232.36 92.0439C232.647 92.3089 233.238 92.4414 234.133 92.4414V93H226.291V92.4414C227.15 92.4414 227.72 92.3089 227.999 92.0439C228.285 91.7718 228.429 91.2347 228.429 90.4326V78.8525C227.354 78.8812 226.531 79.0495 225.958 79.3574C224.905 79.9303 224.311 81.001 224.175 82.5693H223.541L223.562 78.1328Z" fill="black"/>
<path d="M238.011 92.4414C238.634 92.4271 239.081 92.3519 239.354 92.2158C239.798 91.9867 240.02 91.5462 240.02 90.8945V80.249C240.02 79.5973 239.808 79.1605 239.386 78.9385C239.128 78.8024 238.67 78.7201 238.011 78.6914V78.1328H245.702V78.6914C245.015 78.7201 244.542 78.7988 244.284 78.9277C243.854 79.1497 243.64 79.5902 243.64 80.249V90.8945C243.64 91.5104 243.812 91.9222 244.155 92.1299C244.499 92.3376 245.015 92.4414 245.702 92.4414V93H238.011V92.4414Z" fill="black"/>
<path d="M246.787 92.4414C247.382 92.4199 247.804 92.3411 248.055 92.2051C248.477 91.9759 248.688 91.5391 248.688 90.8945V80.249C248.688 79.6117 248.495 79.182 248.108 78.96C247.872 78.8239 247.432 78.7344 246.787 78.6914V78.1328H254.221V78.6914C253.462 78.7559 252.95 78.8991 252.685 79.1211C252.42 79.3431 252.287 79.873 252.287 80.7109V85.416L257.024 80.625C257.354 80.2956 257.565 80.0628 257.658 79.9268C257.758 79.7835 257.809 79.6117 257.809 79.4111C257.809 79.1318 257.68 78.9528 257.422 78.874C257.171 78.7952 256.681 78.7344 255.95 78.6914V78.1328H262.32V78.6914C261.182 78.7845 260.236 79.1068 259.484 79.6582C258.74 80.2096 257.325 81.5524 255.241 83.6865L261.955 91.9902C262.098 92.1693 262.238 92.2839 262.374 92.334C262.517 92.377 262.736 92.4128 263.029 92.4414V93H255.649V92.4414C256.315 92.4342 256.77 92.4056 257.014 92.3555C257.257 92.3053 257.379 92.18 257.379 91.9795C257.379 91.8864 257.34 91.7682 257.261 91.625C257.182 91.4746 257.042 91.2741 256.842 91.0234L252.846 86.0283L252.287 86.5869V90.8945C252.287 91.5319 252.498 91.9652 252.921 92.1943C253.164 92.3304 253.587 92.4128 254.188 92.4414V93H246.787V92.4414Z" fill="black"/>
<path d="M271.999 87.8115L269.894 82.7197H269.711L267.724 87.8115H271.999ZM263.749 92.4414C264.279 92.4056 264.705 92.1657 265.027 91.7217C265.235 91.4424 265.532 90.8265 265.919 89.874L270.807 77.832H271.419L276.328 89.3906C276.88 90.6868 277.291 91.5247 277.563 91.9043C277.836 92.2767 278.222 92.4557 278.724 92.4414V93H271.602V92.4414C272.318 92.4128 272.787 92.3519 273.009 92.2588C273.238 92.1657 273.353 91.9294 273.353 91.5498C273.353 91.3779 273.295 91.1165 273.181 90.7656C273.109 90.5579 273.012 90.3073 272.891 90.0137L272.332 88.6816H267.391C267.068 89.5553 266.861 90.1247 266.768 90.3896C266.574 90.9554 266.478 91.3672 266.478 91.625C266.478 91.9401 266.689 92.1693 267.111 92.3125C267.362 92.3913 267.738 92.4342 268.239 92.4414V93H263.749V92.4414Z" fill="black"/>
<rect x="86" width="1" height="101" fill="black"/>
<defs>
<clipPath id="clip0_34_2016">
<rect width="56" height="100.889" fill="white"/>
</clipPath>
</defs>
</svg>
